<svg version="1.1" viewBox="0.0 0.0 600.0 532.0" fill="none" stroke="none" stroke-linecap="square" stroke-miterlimit="10" width="600" height="532" xmlns:xlink="http://www.w3.org/1999/xlink" xmlns="http://www.w3.org/2000/svg"><path fill="#ffffff" d="M0 0L600.0 0L600.0 532.0L0 532.0L0 0Z" fill-rule="nonzero"/><path stroke="#333333" stroke-width="1.0" stroke-linecap="butt" d="M119.5 421.5L573.5 421.5" fill-rule="nonzero"/><path stroke="#cccccc" stroke-width="1.0" stroke-linecap="butt" d="M119.5 336.5L573.5 336.5" fill-rule="nonzero"/><path stroke="#cccccc" stroke-width="1.0" stroke-linecap="butt" d="M119.5 252.5L573.5 252.5" fill-rule="nonzero"/><path stroke="#cccccc" stroke-width="1.0" stroke-linecap="butt" d="M119.5 167.5L573.5 167.5" fill-rule="nonzero"/><path stroke="#cccccc" stroke-width="1.0" stroke-linecap="butt" d="M119.5 82.5L573.5 82.5" fill-rule="nonzero"/><clipPath id="id_0"><path d="M119.6 82.833336L573.4 82.833336L573.4 421.4L119.6 421.4L119.6 82.833336Z" clip-rule="nonzero"/></clipPath><path stroke="#000000" stroke-width="2.0" stroke-linecap="butt" stroke-opacity="0.0" clip-path="url(#id_0)" d="M181.0 421.0L141.0 421.0L141.0 228.0C141.0 226.89543 141.89543 226.0 143.0 226.0L179.0 226.0C180.10457 226.0 181.0 226.89543 181.0 228.0Z" fill-rule="nonzero"/><path fill="#e69138" clip-path="url(#id_0)" d="M181.0 421.0L141.0 421.0L141.0 228.0C141.0 226.89543 141.89543 226.0 143.0 226.0L179.0 226.0C180.10457 226.0 181.0 226.89543 181.0 228.0Z" fill-rule="nonzero"/><path stroke="#000000" stroke-width="2.0" stroke-linecap="butt" stroke-opacity="0.0" clip-path="url(#id_0)" d="M243.0 421.0L203.0 421.0L203.0 194.0C203.0 192.89543 203.89543 192.0 205.0 192.0L241.0 192.0C242.10457 192.0 243.0 192.89543 243.0 194.0Z" fill-rule="nonzero"/><path fill="#e69138" clip-path="url(#id_0)" d="M243.0 421.0L203.0 421.0L203.0 194.0C203.0 192.89543 203.89543 192.0 205.0 192.0L241.0 192.0C242.10457 192.0 243.0 192.89543 243.0 194.0Z" fill-rule="nonzero"/><path stroke="#000000" stroke-width="2.0" stroke-linecap="butt" stroke-opacity="0.0" clip-path="url(#id_0)" d="M305.0 421.0L265.0 421.0L265.0 157.0C265.0 155.89543 265.89542 155.0 267.0 155.0L303.0 155.0C304.10458 155.0 305.0 155.89543 305.0 157.0Z" fill-rule="nonzero"/><path fill="#e69138" clip-path="url(#id_0)" d="M305.0 421.0L265.0 421.0L265.0 157.0C265.0 155.89543 265.89542 155.0 267.0 155.0L303.0 155.0C304.10458 155.0 305.0 155.89543 305.0 157.0Z" fill-rule="nonzero"/><path stroke="#000000" stroke-width="2.0" stroke-linecap="butt" stroke-opacity="0.0" clip-path="url(#id_0)" d="M367.0 421.0L327.0 421.0L327.0 102.0C327.0 100.89543 327.89542 100.0 329.0 100.0L365.0 100.0C366.10458 100.0 367.0 100.89543 367.0 102.0Z" fill-rule="nonzero"/><path fill="#e69138" clip-path="url(#id_0)" d="M367.0 421.0L327.0 421.0L327.0 102.0C327.0 100.89543 327.89542 100.0 329.0 100.0L365.0 100.0C366.10458 100.0 367.0 100.89543 367.0 102.0Z" fill-rule="nonzero"/><path stroke="#000000" stroke-width="2.0" stroke-linecap="butt" stroke-opacity="0.0" clip-path="url(#id_0)" d="M428.0 421.0L388.0 421.0L388.0 183.0C388.0 181.89543 388.89542 181.0 390.0 181.0L426.0 181.0C427.10458 181.0 428.0 181.89543 428.0 183.0Z" fill-rule="nonzero"/><path fill="#e69138" clip-path="url(#id_0)" d="M428.0 421.0L388.0 421.0L388.0 183.0C388.0 181.89543 388.89542 181.0 390.0 181.0L426.0 181.0C427.10458 181.0 428.0 181.89543 428.0 183.0Z" fill-rule="nonzero"/><path stroke="#000000" stroke-width="2.0" stroke-linecap="butt" stroke-opacity="0.0" clip-path="url(#id_0)" d="M490.0 421.0L450.0 421.0L450.0 279.0C450.0 277.89542 450.89542 277.0 452.0 277.0L488.0 277.0C489.10458 277.0 490.0 277.89542 490.0 279.0Z" fill-rule="nonzero"/><path fill="#e69138" clip-path="url(#id_0)" d="M490.0 421.0L450.0 421.0L450.0 279.0C450.0 277.89542 450.89542 277.0 452.0 277.0L488.0 277.0C489.10458 277.0 490.0 277.89542 490.0 279.0Z" fill-rule="nonzero"/><path stroke="#000000" stroke-width="2.0" stroke-linecap="butt" stroke-opacity="0.0" clip-path="url(#id_0)" d="M552.0 421.0L512.0 421.0L512.0 407.0C512.0 405.89542 512.89545 405.0 514.0 405.0L550.0 405.0C551.10455 405.0 552.0 405.89542 552.0 407.0Z" fill-rule="nonzero"/><path fill="#e69138" clip-path="url(#id_0)" d="M552.0 421.0L512.0 421.0L512.0 407.0C512.0 405.89542 512.89545 405.0 514.0 405.0L550.0 405.0C551.10455 405.0 552.0 405.89542 552.0 407.0Z" fill-rule="nonzero"/><path fill="#000000" d="M298.46875 500.4L303.96875 486.0875L306.01562 486.0875L311.875 500.4L309.71875 500.4L308.04688 496.05624L302.0625 496.05624L300.48438 500.4L298.46875 500.4ZM302.60938 494.525L307.45312 494.525L305.96875 490.55624Q305.28125 488.74374 304.95312 487.5875Q304.67188 488.9625 304.17188 490.32187L302.60938 494.525ZM312.5 501.25937L314.20312 501.50937Q314.3125 502.30624 314.79688 502.66562Q315.45312 503.15 316.59375 503.15Q317.8125 503.15 318.46875 502.66562Q319.14062 502.18124 319.375 501.30624Q319.51562 500.75937 319.5 499.04062Q318.34375 500.4 316.625 500.4Q314.48438 500.4 313.3125 498.85312Q312.14062 497.30624 312.14062 495.15Q312.14062 493.66562 312.67188 492.41562Q313.21875 491.16562 314.23438 490.47812Q315.26562 489.79062 316.64062 489.79062Q318.46875 489.79062 319.67188 491.275L319.67188 490.025L321.28125 490.025L321.28125 498.99374Q321.28125 501.41562 320.78125 502.41562Q320.29688 503.43124 319.21875 504.00937Q318.15625 504.60312 316.59375 504.60312Q314.75 504.60312 313.59375 503.775Q312.45312 502.94687 312.5 501.25937ZM313.95312 495.025Q313.95312 497.07187 314.76562 498.00937Q315.57812 498.94687 316.79688 498.94687Q318.0 498.94687 318.8125 498.00937Q319.64062 497.07187 319.64062 495.0875Q319.64062 493.18124 318.79688 492.2125Q317.95312 491.24374 316.76562 491.24374Q315.59375 491.24374 314.76562 492.19687Q313.95312 493.15 313.95312 495.025ZM330.92188 497.05624L332.73438 497.29062Q332.3125 498.86874 331.14062 499.75937Q329.98438 500.63437 328.17188 500.63437Q325.90625 500.63437 324.5625 499.24374Q323.23438 497.8375 323.23438 495.30624Q323.23438 492.68124 324.57812 491.24374Q325.92188 489.79062 328.07812 489.79062Q330.15625 489.79062 331.46875 491.2125Q332.79688 492.61874 332.79688 495.19687Q332.79688 495.35312 332.78125 495.66562L325.04688 495.66562Q325.14062 497.36874 326.01562 498.275Q326.89062 499.18124 328.1875 499.18124Q329.15625 499.18124 329.82812 498.68124Q330.51562 498.16562 330.92188 497.05624ZM325.14062 494.2125L330.9375 494.2125Q330.82812 492.91562 330.28125 492.25937Q329.4375 491.24374 328.09375 491.24374Q326.89062 491.24374 326.0625 492.05624Q325.23438 492.85312 325.14062 494.2125ZM347.75 494.79062L347.75 493.10312L353.8125 493.0875L353.8125 498.4Q352.40625 499.525 350.92188 500.0875Q349.4375 500.65 347.875 500.65Q345.76562 500.65 344.04688 499.74374Q342.32812 498.8375 341.4375 497.13437Q340.5625 495.41562 340.5625 493.30624Q340.5625 491.2125 341.4375 489.41562Q342.3125 487.60312 343.95312 486.72812Q345.59375 485.8375 347.73438 485.8375Q349.28125 485.8375 350.53125 486.3375Q351.79688 486.8375 352.5 487.74374Q353.21875 488.63437 353.59375 490.0875L351.89062 490.55624Q351.5625 489.4625 351.07812 488.8375Q350.60938 488.2125 349.71875 487.8375Q348.82812 487.4625 347.75 487.4625Q346.4375 487.4625 345.48438 487.85312Q344.54688 488.24374 343.96875 488.9Q343.39062 489.54062 343.0625 490.30624Q342.51562 491.63437 342.51562 493.19687Q342.51562 495.10312 343.17188 496.4Q343.84375 497.68124 345.09375 498.30624Q346.35938 498.93124 347.76562 498.93124Q349.0 498.93124 350.17188 498.4625Q351.34375 497.99374 351.95312 497.44687L351.95312 494.79062L347.75 494.79062ZM356.79688 500.4L356.79688 490.025L358.375 490.025L358.375 491.60312Q358.98438 490.49374 359.5 490.15Q360.01562 489.79062 360.625 489.79062Q361.51562 489.79062 362.4375 490.35312L361.82812 491.99374Q361.1875 491.60312 360.54688 491.60312Q359.96875 491.60312 359.5 491.9625Q359.04688 492.30624 358.84375 492.91562Q358.5625 493.85312 358.5625 494.9625L358.5625 500.4L356.79688 500.4ZM363.17188 495.2125Q363.17188 492.3375 364.76562 490.94687Q366.10938 489.79062 368.03125 489.79062Q370.17188 489.79062 371.51562 491.19687Q372.875 492.60312 372.875 495.07187Q372.875 497.07187 372.28125 498.22812Q371.6875 499.36874 370.53125 500.00937Q369.39062 500.63437 368.03125 500.63437Q365.84375 500.63437 364.5 499.24374Q363.17188 497.8375 363.17188 495.2125ZM364.96875 495.2125Q364.96875 497.2125 365.82812 498.19687Q366.70312 499.18124 368.03125 499.18124Q369.34375 499.18124 370.20312 498.19687Q371.07812 497.19687 371.07812 495.15Q371.07812 493.22812 370.20312 492.24374Q369.32812 491.24374 368.03125 491.24374Q366.70312 491.24374 365.82812 492.24374Q364.96875 493.22812 364.96875 495.2125ZM381.60938 500.4L381.60938 498.86874Q380.40625 500.63437 378.32812 500.63437Q377.40625 500.63437 376.60938 500.29062Q375.8125 499.93124 375.42188 499.4Q375.04688 498.86874 374.89062 498.0875Q374.78125 497.57187 374.78125 496.44687L374.78125 490.025L376.53125 490.025L376.53125 495.775Q376.53125 497.15 376.64062 497.63437Q376.8125 498.32187 377.34375 498.72812Q377.89062 499.11874 378.67188 499.11874Q379.46875 499.11874 380.15625 498.7125Q380.85938 498.30624 381.14062 497.61874Q381.4375 496.91562 381.4375 495.5875L381.4375 490.025L383.1875 490.025L383.1875 500.4L381.60938 500.4ZM384.8125 504.36874L384.8125 490.025L386.42188 490.025L386.42188 491.36874Q386.98438 490.5875 387.6875 490.19687Q388.40625 489.79062 389.42188 489.79062Q390.75 489.79062 391.76562 490.47812Q392.78125 491.16562 393.29688 492.41562Q393.82812 493.65 393.82812 495.13437Q393.82812 496.72812 393.25 498.00937Q392.6875 499.275 391.59375 499.9625Q390.5 500.63437 389.29688 500.63437Q388.42188 500.63437 387.71875 500.25937Q387.03125 499.88437 386.57812 499.32187L386.57812 504.36874L384.8125 504.36874ZM386.40625 495.275Q386.40625 497.275 387.21875 498.22812Q388.03125 499.18124 389.1875 499.18124Q390.35938 499.18124 391.1875 498.19687Q392.03125 497.2125 392.03125 495.11874Q392.03125 493.15 391.20312 492.16562Q390.39062 491.16562 389.26562 491.16562Q388.14062 491.16562 387.26562 492.22812Q386.40625 493.275 386.40625 495.275Z" fill-rule="nonzero"/><path fill="#000000" d="M45.599995 318.17917L32.974995 318.17917L32.974995 322.89792L31.287495 322.89792L31.287495 311.55417L32.974995 311.55417L32.974995 316.28854L45.599995 316.28854L45.599995 318.17917ZM40.412495 310.6948Q37.537495 310.6948 36.14687 309.10104Q34.99062 307.7573 34.99062 305.83542Q34.99062 303.6948 36.39687 302.35104Q37.80312 300.99167 40.27187 300.99167Q42.27187 300.99167 43.42812 301.58542Q44.568745 302.17917 45.20937 303.33542Q45.83437 304.47604 45.83437 305.83542Q45.83437 308.02292 44.443745 309.36667Q43.037495 310.6948 40.412495 310.6948ZM40.412495 308.89792Q42.412495 308.89792 43.39687 308.03854Q44.381245 307.16354 44.381245 305.83542Q44.381245 304.52292 43.39687 303.66354Q42.39687 302.78854 40.349995 302.78854Q38.42812 302.78854 37.443745 303.66354Q36.443745 304.53854 36.443745 305.83542Q36.443745 307.16354 37.443745 308.03854Q38.42812 308.89792 40.412495 308.89792ZM44.02187 295.21042L45.58437 294.96042Q45.74062 295.6948 45.74062 296.28854Q45.74062 297.24167 45.443745 297.77292Q45.131245 298.28854 44.64687 298.5073Q44.14687 298.72604 42.568745 298.72604L36.599995 298.72604L36.599995 300.0073L35.224995 300.0073L35.224995 298.72604L32.662495 298.72604L31.599995 296.97604L35.224995 296.97604L35.224995 295.21042L36.599995 295.21042L36.599995 296.97604L42.662495 296.97604Q43.412495 296.97604 43.631245 296.8823Q43.83437 296.78854 43.974995 296.58542Q44.099995 296.36667 44.099995 295.97604Q44.099995 295.6948 44.02187 295.21042ZM44.318745 286.27292Q45.14687 287.2573 45.49062 288.16354Q45.83437 289.0698 45.83437 290.10104Q45.83437 291.80417 45.006245 292.72604Q44.162495 293.64792 42.86562 293.64792Q42.099995 293.64792 41.474995 293.30417Q40.849995 292.9448 40.474995 292.3823Q40.08437 291.8198 39.881245 291.11667Q39.756245 290.60104 39.61562 289.55417Q39.36562 287.42917 39.02187 286.42917Q38.662495 286.41354 38.55312 286.41354Q37.49062 286.41354 37.037495 286.91354Q36.443745 287.58542 36.443745 288.91354Q36.443745 290.16354 36.881245 290.7573Q37.318745 291.33542 38.42812 291.61667L38.193745 293.33542Q37.08437 293.10104 36.412495 292.5698Q35.724995 292.03854 35.36562 291.02292Q34.99062 290.0073 34.99062 288.66354Q34.99062 287.33542 35.30312 286.5073Q35.61562 285.67917 36.099995 285.28854Q36.568745 284.89792 37.287495 284.74167Q37.74062 284.64792 38.912495 284.64792L41.256245 284.64792Q43.70937 284.64792 44.36562 284.53854Q45.006245 284.42917 45.599995 284.08542L45.599995 285.92917Q45.05312 286.1948 44.318745 286.27292ZM40.39687 286.42917Q40.787495 287.3823 41.05312 289.30417Q41.20937 290.3823 41.412495 290.83542Q41.599995 291.27292 41.974995 291.52292Q42.349995 291.77292 42.818745 291.77292Q43.52187 291.77292 43.99062 291.24167Q44.45937 290.71042 44.45937 289.67917Q44.45937 288.66354 44.02187 287.8823Q43.568745 287.08542 42.80312 286.71042Q42.193745 286.42917 41.037495 286.42917L40.39687 286.42917ZM45.599995 282.08542L31.287495 282.08542L31.287495 280.33542L45.599995 280.33542L45.599995 282.08542ZM33.30312 272.03854L31.287495 272.03854L31.287495 270.27292L33.30312 270.27292L33.30312 272.03854ZM45.599995 272.03854L35.224995 272.03854L35.224995 270.27292L45.599995 270.27292L45.599995 272.03854ZM45.599995 268.05417L35.224995 268.05417L35.224995 266.46042L36.70937 266.46042Q34.99062 265.3198 34.99062 263.16354Q34.99062 262.22604 35.33437 261.4448Q35.662495 260.64792 36.20937 260.2573Q36.756245 259.86667 37.506245 259.71042Q38.006245 259.61667 39.224995 259.61667L45.599995 259.61667L45.599995 261.3823L39.287495 261.3823Q38.20937 261.3823 37.67812 261.58542Q37.14687 261.78854 36.83437 262.3198Q36.52187 262.83542 36.52187 263.53854Q36.52187 264.66354 37.24062 265.47604Q37.943745 266.28854 39.92812 266.28854L45.599995 266.28854L45.599995 268.05417ZM45.599995 252.05417L35.224995 252.05417L35.224995 250.47604L36.67812 250.47604Q35.92812 249.99167 35.45937 249.17917Q34.99062 248.36667 34.99062 247.33542Q34.99062 246.17917 35.474995 245.4448Q35.943745 244.71042 36.80312 244.39792Q34.99062 243.16354 34.99062 241.1948Q34.99062 239.64792 35.849995 238.8198Q36.70937 237.99167 38.474995 237.99167L45.599995 237.99167L45.599995 239.74167L39.068745 239.74167Q38.006245 239.74167 37.55312 239.91354Q37.08437 240.08542 36.80312 240.53854Q36.52187 240.97604 36.52187 241.58542Q36.52187 242.67917 37.256245 243.41354Q37.974995 244.1323 39.568745 244.1323L45.599995 244.1323L45.599995 245.8823L38.86562 245.8823Q37.693745 245.8823 37.11562 246.3198Q36.52187 246.74167 36.52187 247.72604Q36.52187 248.46042 36.912495 249.10104Q37.30312 249.72604 38.05312 250.0073Q38.80312 250.28854 40.224995 250.28854L45.599995 250.28854L45.599995 252.05417ZM33.30312 236.03854L31.287495 236.03854L31.287495 234.27292L33.30312 234.27292L33.30312 236.03854ZM45.599995 236.03854L35.224995 236.03854L35.224995 234.27292L45.599995 234.27292L45.599995 236.03854ZM45.599995 232.08542L31.287495 232.08542L31.287495 230.33542L45.599995 230.33542L45.599995 232.08542ZM45.599995 228.08542L31.287495 228.08542L31.287495 226.33542L45.599995 226.33542L45.599995 228.08542ZM33.30312 224.03854L31.287495 224.03854L31.287495 222.27292L33.30312 222.27292L33.30312 224.03854ZM45.599995 224.03854L35.224995 224.03854L35.224995 222.27292L45.599995 222.27292L45.599995 224.03854ZM40.412495 220.6948Q37.537495 220.6948 36.14687 219.10104Q34.99062 217.7573 34.99062 215.83542Q34.99062 213.6948 36.39687 212.35104Q37.80312 210.99167 40.27187 210.99167Q42.27187 210.99167 43.42812 211.58542Q44.568745 212.17917 45.20937 213.33542Q45.83437 214.47604 45.83437 215.83542Q45.83437 218.02292 44.443745 219.36667Q43.037495 220.6948 40.412495 220.6948ZM40.412495 218.89792Q42.412495 218.89792 43.39687 218.03854Q44.381245 217.16354 44.381245 215.83542Q44.381245 214.52292 43.39687 213.66354Q42.39687 212.78854 40.349995 212.78854Q38.42812 212.78854 37.443745 213.66354Q36.443745 214.53854 36.443745 215.83542Q36.443745 217.16354 37.443745 218.03854Q38.42812 218.89792 40.412495 218.89792ZM45.599995 209.05417L35.224995 209.05417L35.224995 207.46042L36.70937 207.46042Q34.99062 206.3198 34.99062 204.16354Q34.99062 203.22604 35.33437 202.4448Q35.662495 201.64792 36.20937 201.2573Q36.756245 200.86667 37.506245 200.71042Q38.006245 200.61667 39.224995 200.61667L45.599995 200.61667L45.599995 202.3823L39.287495 202.3823Q38.20937 202.3823 37.67812 202.58542Q37.14687 202.78854 36.83437 203.3198Q36.52187 203.83542 36.52187 204.53854Q36.52187 205.66354 37.24062 206.47604Q37.943745 207.28854 39.92812 207.28854L45.599995 207.28854L45.599995 209.05417Z" fill-rule="nonzero"/><path fill="#000000" d="M101.35 421.54062Q101.35 419.25937 101.81875 417.86874Q102.2875 416.47812 103.20937 415.72812Q104.14687 414.9625 105.55312 414.9625Q106.58437 414.9625 107.36562 415.38437Q108.14687 415.79062 108.64687 416.5875Q109.1625 417.36874 109.45937 418.50937Q109.75625 419.63437 109.75625 421.54062Q109.75625 423.80624 109.2875 425.2125Q108.81875 426.60312 107.88125 427.36874Q106.95937 428.11874 105.55312 428.11874Q103.67812 428.11874 102.61562 426.79062Q101.35 425.18124 101.35 421.54062ZM102.975 421.54062Q102.975 424.7125 103.70937 425.775Q104.45937 426.82187 105.55312 426.82187Q106.63125 426.82187 107.38125 425.775Q108.13125 424.7125 108.13125 421.54062Q108.13125 418.36874 107.38125 417.32187Q106.63125 416.275 105.5375 416.275Q104.44375 416.275 103.7875 417.19687Q102.975 418.36874 102.975 421.54062Z" fill-rule="nonzero"/><path fill="#000000" d="M101.35 339.88333L103.00625 339.7427Q103.19375 340.96146 103.86562 341.57083Q104.5375 342.1802 105.49062 342.1802Q106.63125 342.1802 107.4125 341.32083Q108.20937 340.46146 108.20937 339.02396Q108.20937 337.6802 107.44375 336.89896Q106.69375 336.1177 105.45937 336.1177Q104.69375 336.1177 104.06875 336.46146Q103.45937 336.8052 103.11562 337.3677L101.63125 337.16458L102.88125 330.5552L109.2875 330.5552L109.2875 332.0552L104.14687 332.0552L103.44375 335.52396Q104.61562 334.71146 105.88125 334.71146Q107.56875 334.71146 108.725 335.88333Q109.89687 337.0552 109.89687 338.88333Q109.89687 340.63333 108.86562 341.91458Q107.63125 343.47708 105.49062 343.47708Q103.725 343.47708 102.61562 342.4927Q101.50625 341.50833 101.35 339.88333Z" fill-rule="nonzero"/><path fill="#000000" d="M97.30312 258.61667L95.725 258.61667L95.725 248.53854Q95.14687 249.08542 94.225 249.6323Q93.30312 250.16354 92.55312 250.4448L92.55312 248.91354Q93.88125 248.28854 94.88125 247.39792Q95.88125 246.5073 96.2875 245.67917L97.30312 245.67917L97.30312 258.61667ZM101.35 252.2573Q101.35 249.97604 101.81875 248.58542Q102.2875 247.1948 103.20937 246.4448Q104.14687 245.67917 105.55312 245.67917Q106.58437 245.67917 107.36562 246.10104Q108.14687 246.5073 108.64687 247.30417Q109.1625 248.08542 109.45937 249.22604Q109.75625 250.35104 109.75625 252.2573Q109.75625 254.52292 109.2875 255.92917Q108.81875 257.3198 107.88125 258.08542Q106.95937 258.83542 105.55312 258.83542Q103.67812 258.83542 102.61562 257.5073Q101.35 255.89792 101.35 252.2573ZM102.975 252.2573Q102.975 255.42917 103.70937 256.49167Q104.45937 257.53854 105.55312 257.53854Q106.63125 257.53854 107.38125 256.49167Q108.13125 255.42917 108.13125 252.2573Q108.13125 249.08542 107.38125 248.03854Q106.63125 246.99167 105.5375 246.99167Q104.44375 246.99167 103.7875 247.91354Q102.975 249.08542 102.975 252.2573Z" fill-rule="nonzero"/><path fill="#000000" d="M97.30312 173.975L95.725 173.975L95.725 163.89688Q95.14687 164.44376 94.225 164.99063Q93.30312 165.52188 92.55312 165.80313L92.55312 164.27188Q93.88125 163.64688 94.88125 162.75626Q95.88125 161.86563 96.2875 161.0375L97.30312 161.0375L97.30312 173.975ZM101.35 170.6L103.00625 170.45938Q103.19375 171.67813 103.86562 172.2875Q104.5375 172.89688 105.49062 172.89688Q106.63125 172.89688 107.4125 172.0375Q108.20937 171.17813 108.20937 169.74063Q108.20937 168.39688 107.44375 167.61563Q106.69375 166.83438 105.45937 166.83438Q104.69375 166.83438 104.06875 167.17813Q103.45937 167.52188 103.11562 168.08438L101.63125 167.88126L102.88125 161.27188L109.2875 161.27188L109.2875 162.77188L104.14687 162.77188L103.44375 166.24063Q104.61562 165.42813 105.88125 165.42813Q107.56875 165.42813 108.725 166.6Q109.89687 167.77188 109.89687 169.6Q109.89687 171.35 108.86562 172.63126Q107.63125 174.19376 105.49062 174.19376Q103.725 174.19376 102.61562 173.20938Q101.50625 172.225 101.35 170.6Z" fill-rule="nonzero"/><path fill="#000000" d="M99.6625 87.81771L99.6625 89.333336L91.14687 89.333336Q91.13125 88.75521 91.33437 88.239586Q91.6625 87.364586 92.36562 86.520836Q93.08437 85.677086 94.44375 84.56771Q96.5375 82.84896 97.27187 81.84896Q98.02187 80.833336 98.02187 79.94271Q98.02187 78.989586 97.35 78.34896Q96.67812 77.708336 95.6 77.708336Q94.44375 77.708336 93.75625 78.395836Q93.08437 79.083336 93.06875 80.28646L91.44375 80.114586Q91.61562 78.302086 92.69375 77.34896Q93.7875 76.395836 95.63125 76.395836Q97.475 76.395836 98.55312 77.427086Q99.64687 78.458336 99.64687 79.97396Q99.64687 80.739586 99.31875 81.489586Q99.00625 82.239586 98.27187 83.06771Q97.5375 83.895836 95.83437 85.333336Q94.4125 86.53646 94.00625 86.958336Q93.6 87.38021 93.35 87.81771L99.6625 87.81771ZM101.35 82.97396Q101.35 80.69271 101.81875 79.302086Q102.2875 77.91146 103.20937 77.16146Q104.14687 76.395836 105.55312 76.395836Q106.58437 76.395836 107.36562 76.81771Q108.14687 77.22396 108.64687 78.020836Q109.1625 78.802086 109.45937 79.94271Q109.75625 81.06771 109.75625 82.97396Q109.75625 85.239586 109.2875 86.645836Q108.81875 88.03646 107.88125 88.802086Q106.95937 89.552086 105.55312 89.552086Q103.67812 89.552086 102.61562 88.22396Q101.35 86.614586 101.35 82.97396ZM102.975 82.97396Q102.975 86.145836 103.70937 87.208336Q104.45937 88.25521 105.55312 88.25521Q106.63125 88.25521 107.38125 87.208336Q108.13125 86.145836 108.13125 82.97396Q108.13125 79.802086 107.38125 78.75521Q106.63125 77.708336 105.5375 77.708336Q104.44375 77.708336 103.7875 78.63021Q102.975 79.802086 102.975 82.97396Z" fill-rule="nonzero"/><path fill="#000000" d="M144.02551 441.04062Q144.02551 438.75937 144.49426 437.36874Q144.96301 435.97812 145.88489 435.22812Q146.82239 434.4625 148.22864 434.4625Q149.25989 434.4625 150.04114 434.88437Q150.82239 435.29062 151.32239 436.0875Q151.83801 436.86874 152.13489 438.00937Q152.43176 439.13437 152.43176 441.04062Q152.43176 443.30624 151.96301 444.7125Q151.49426 446.10312 150.55676 446.86874Q149.63489 447.61874 148.22864 447.61874Q146.35364 447.61874 145.29114 446.29062Q144.02551 444.68124 144.02551 441.04062ZM145.65051 441.04062Q145.65051 444.2125 146.38489 445.275Q147.13489 446.32187 148.22864 446.32187Q149.30676 446.32187 150.05676 445.275Q150.80676 444.2125 150.80676 441.04062Q150.80676 437.86874 150.05676 436.82187Q149.30676 435.775 148.21301 435.775Q147.11926 435.775 146.46301 436.69687Q145.65051 437.86874 145.65051 441.04062ZM153.85364 443.525L153.85364 441.94687L158.71301 441.94687L158.71301 443.525L153.85364 443.525ZM165.97864 447.4L164.40051 447.4L164.40051 437.32187Q163.82239 437.86874 162.90051 438.41562Q161.97864 438.94687 161.22864 439.22812L161.22864 437.69687Q162.55676 437.07187 163.55676 436.18124Q164.55676 435.29062 164.96301 434.4625L165.97864 434.4625L165.97864 447.4ZM175.08801 447.4L175.08801 444.32187L169.50989 444.32187L169.50989 442.86874L175.38489 434.50937L176.68176 434.50937L176.68176 442.86874L178.41614 442.86874L178.41614 444.32187L176.68176 444.32187L176.68176 447.4L175.08801 447.4ZM175.08801 442.86874L175.08801 437.05624L171.05676 442.86874L175.08801 442.86874Z" fill-rule="nonzero"/><path fill="#000000" d="M206.72014 447.4L205.14201 447.4L205.14201 437.32187Q204.56389 437.86874 203.64201 438.41562Q202.72014 438.94687 201.97014 439.22812L201.97014 437.69687Q203.29826 437.07187 204.29826 436.18124Q205.29826 435.29062 205.70451 434.4625L206.72014 434.4625L206.72014 447.4ZM210.76701 444.025L212.42326 443.88437Q212.61076 445.10312 213.28264 445.7125Q213.95451 446.32187 214.90764 446.32187Q216.04826 446.32187 216.82951 445.4625Q217.62639 444.60312 217.62639 443.16562Q217.62639 441.82187 216.86076 441.04062Q216.11076 440.25937 214.87639 440.25937Q214.11076 440.25937 213.48576 440.60312Q212.87639 440.94687 212.53264 441.50937L211.04826 441.30624L212.29826 434.69687L218.70451 434.69687L218.70451 436.19687L213.56389 436.19687L212.86076 439.66562Q214.03264 438.85312 215.29826 438.85312Q216.98576 438.85312 218.14201 440.025Q219.31389 441.19687 219.31389 443.025Q219.31389 444.775 218.28264 446.05624Q217.04826 447.61874 214.90764 447.61874Q213.14201 447.61874 212.03264 446.63437Q210.92326 445.65 210.76701 444.025ZM220.59514 443.525L220.59514 441.94687L225.45451 441.94687L225.45451 443.525L220.59514 443.525ZM235.07951 445.88437L235.07951 447.4L226.56389 447.4Q226.54826 446.82187 226.75139 446.30624Q227.07951 445.43124 227.78264 444.5875Q228.50139 443.74374 229.86076 442.63437Q231.95451 440.91562 232.68889 439.91562Q233.43889 438.9 233.43889 438.00937Q233.43889 437.05624 232.76701 436.41562Q232.09514 435.775 231.01701 435.775Q229.86076 435.775 229.17326 436.4625Q228.50139 437.15 228.48576 438.35312L226.86076 438.18124Q227.03264 436.36874 228.11076 435.41562Q229.20451 434.4625 231.04826 434.4625Q232.89201 434.4625 233.97014 435.49374Q235.06389 436.525 235.06389 438.04062Q235.06389 438.80624 234.73576 439.55624Q234.42326 440.30624 233.68889 441.13437Q232.95451 441.9625 231.25139 443.4Q229.82951 444.60312 229.42326 445.025Q229.01701 445.44687 228.76701 445.88437L235.07951 445.88437ZM237.00139 444.41562L238.51701 444.275Q238.72014 445.35312 239.25139 445.8375Q239.79826 446.32187 240.65764 446.32187Q241.39201 446.32187 241.93889 445.99374Q242.48576 445.65 242.82951 445.10312Q243.18889 444.54062 243.42326 443.5875Q243.65764 442.63437 243.65764 441.65Q243.65764 441.54062 243.65764 441.3375Q243.17326 442.0875 242.34514 442.55624Q241.53264 443.025 240.57951 443.025Q238.98576 443.025 237.87639 441.86874Q236.76701 440.7125 236.76701 438.80624Q236.76701 436.85312 237.92326 435.66562Q239.07951 434.4625 240.81389 434.4625Q242.07951 434.4625 243.11076 435.15Q244.15764 435.82187 244.68889 437.07187Q245.23576 438.32187 245.23576 440.69687Q245.23576 443.16562 244.68889 444.63437Q244.15764 446.0875 243.09514 446.85312Q242.04826 447.61874 240.62639 447.61874Q239.11076 447.61874 238.14201 446.79062Q237.18889 445.94687 237.00139 444.41562ZM243.48576 438.72812Q243.48576 437.36874 242.75139 436.57187Q242.03264 435.775 241.01701 435.775Q239.95451 435.775 239.17326 436.63437Q238.39201 437.49374 238.39201 438.86874Q238.39201 440.10312 239.12639 440.86874Q239.87639 441.63437 240.97014 441.63437Q242.06389 441.63437 242.76701 440.86874Q243.48576 440.10312 243.48576 438.72812Z" fill-rule="nonzero"/><path fill="#000000" d="M262.5085 443.99374L264.10226 443.79062Q264.3679 445.13437 265.02414 445.72812Q265.6804 446.32187 266.6179 446.32187Q267.7429 446.32187 268.5085 445.55624Q269.27414 444.775 269.27414 443.63437Q269.27414 442.54062 268.5554 441.8375Q267.85226 441.11874 266.7585 441.11874Q266.3054 441.11874 265.6335 441.30624L265.8054 439.91562Q265.96164 439.93124 266.071 439.93124Q267.071 439.93124 267.8835 439.4Q268.696 438.86874 268.696 437.775Q268.696 436.9 268.10226 436.3375Q267.5085 435.75937 266.58664 435.75937Q265.66476 435.75937 265.03976 436.3375Q264.4304 436.91562 264.2585 438.0875L262.6804 437.80624Q262.96164 436.2125 263.9929 435.3375Q265.02414 434.4625 266.5554 434.4625Q267.60226 434.4625 268.4929 434.91562Q269.3835 435.36874 269.85226 436.15Q270.321 436.93124 270.321 437.80624Q270.321 438.65 269.8679 439.3375Q269.4304 440.00937 268.53976 440.41562Q269.6804 440.68124 270.3054 441.525Q270.946 442.35312 270.946 443.5875Q270.946 445.275 269.71164 446.4625Q268.4929 447.63437 266.6179 447.63437Q264.91476 447.63437 263.78976 446.61874Q262.6804 445.60312 262.5085 443.99374ZM272.5085 441.04062Q272.5085 438.75937 272.97726 437.36874Q273.446 435.97812 274.3679 435.22812Q275.3054 434.4625 276.71164 434.4625Q277.7429 434.4625 278.52414 434.88437Q279.3054 435.29062 279.8054 436.0875Q280.321 436.86874 280.6179 438.00937Q280.91476 439.13437 280.91476 441.04062Q280.91476 443.30624 280.446 444.7125Q279.97726 446.10312 279.03976 446.86874Q278.1179 447.61874 276.71164 447.61874Q274.83664 447.61874 273.77414 446.29062Q272.5085 444.68124 272.5085 441.04062ZM274.1335 441.04062Q274.1335 444.2125 274.8679 445.275Q275.6179 446.32187 276.71164 446.32187Q277.78976 446.32187 278.53976 445.275Q279.28976 444.2125 279.28976 441.04062Q279.28976 437.86874 278.53976 436.82187Q277.78976 435.775 276.696 435.775Q275.60226 435.775 274.946 436.69687Q274.1335 437.86874 274.1335 441.04062ZM282.33664 443.525L282.33664 441.94687L287.196 441.94687L287.196 443.525L282.33664 443.525ZM293.571 447.4L293.571 444.32187L287.9929 444.32187L287.9929 442.86874L293.8679 434.50937L295.16476 434.50937L295.16476 442.86874L296.89914 442.86874L296.89914 444.32187L295.16476 444.32187L295.16476 447.4L293.571 447.4ZM293.571 442.86874L293.571 437.05624L289.53976 442.86874L293.571 442.86874ZM303.571 447.4L303.571 444.32187L297.9929 444.32187L297.9929 442.86874L303.8679 434.50937L305.16476 434.50937L305.16476 442.86874L306.89914 442.86874L306.89914 444.32187L305.16476 444.32187L305.16476 447.4L303.571 447.4ZM303.571 442.86874L303.571 437.05624L299.53976 442.86874L303.571 442.86874Z" fill-rule="nonzero"/><path fill="#000000" d="M329.3125 447.4L329.3125 444.32187L323.73438 444.32187L323.73438 442.86874L329.60938 434.50937L330.90625 434.50937L330.90625 442.86874L332.64062 442.86874L332.64062 444.32187L330.90625 444.32187L330.90625 447.4L329.3125 447.4ZM329.3125 442.86874L329.3125 437.05624L325.28125 442.86874L329.3125 442.86874ZM334.25 444.025L335.90625 443.88437Q336.09375 445.10312 336.76562 445.7125Q337.4375 446.32187 338.39062 446.32187Q339.53125 446.32187 340.3125 445.4625Q341.10938 444.60312 341.10938 443.16562Q341.10938 441.82187 340.34375 441.04062Q339.59375 440.25937 338.35938 440.25937Q337.59375 440.25937 336.96875 440.60312Q336.35938 440.94687 336.01562 441.50937L334.53125 441.30624L335.78125 434.69687L342.1875 434.69687L342.1875 436.19687L337.04688 436.19687L336.34375 439.66562Q337.51562 438.85312 338.78125 438.85312Q340.46875 438.85312 341.625 440.025Q342.79688 441.19687 342.79688 443.025Q342.79688 444.775 341.76562 446.05624Q340.53125 447.61874 338.39062 447.61874Q336.625 447.61874 335.51562 446.63437Q334.40625 445.65 334.25 444.025ZM344.07812 443.525L344.07812 441.94687L348.9375 441.94687L348.9375 443.525L344.07812 443.525ZM350.25 444.025L351.90625 443.88437Q352.09375 445.10312 352.76562 445.7125Q353.4375 446.32187 354.39062 446.32187Q355.53125 446.32187 356.3125 445.4625Q357.10938 444.60312 357.10938 443.16562Q357.10938 441.82187 356.34375 441.04062Q355.59375 440.25937 354.35938 440.25937Q353.59375 440.25937 352.96875 440.60312Q352.35938 440.94687 352.01562 441.50937L350.53125 441.30624L351.78125 434.69687L358.1875 434.69687L358.1875 436.19687L353.04688 436.19687L352.34375 439.66562Q353.51562 438.85312 354.78125 438.85312Q356.46875 438.85312 357.625 440.025Q358.79688 441.19687 358.79688 443.025Q358.79688 444.775 357.76562 446.05624Q356.53125 447.61874 354.39062 447.61874Q352.625 447.61874 351.51562 446.63437Q350.40625 445.65 350.25 444.025ZM360.48438 444.41562L362.0 444.275Q362.20312 445.35312 362.73438 445.8375Q363.28125 446.32187 364.14062 446.32187Q364.875 446.32187 365.42188 445.99374Q365.96875 445.65 366.3125 445.10312Q366.67188 444.54062 366.90625 443.5875Q367.14062 442.63437 367.14062 441.65Q367.14062 441.54062 367.14062 441.3375Q366.65625 442.0875 365.82812 442.55624Q365.01562 443.025 364.0625 443.025Q362.46875 443.025 361.35938 441.86874Q360.25 440.7125 360.25 438.80624Q360.25 436.85312 361.40625 435.66562Q362.5625 434.4625 364.29688 434.4625Q365.5625 434.4625 366.59375 435.15Q367.64062 435.82187 368.17188 437.07187Q368.71875 438.32187 368.71875 440.69687Q368.71875 443.16562 368.17188 444.63437Q367.64062 446.0875 366.57812 446.85312Q365.53125 447.61874 364.10938 447.61874Q362.59375 447.61874 361.625 446.79062Q360.67188 445.94687 360.48438 444.41562ZM366.96875 438.72812Q366.96875 437.36874 366.23438 436.57187Q365.51562 435.775 364.5 435.775Q363.4375 435.775 362.65625 436.63437Q361.875 437.49374 361.875 438.86874Q361.875 440.10312 362.60938 440.86874Q363.35938 441.63437 364.45312 441.63437Q365.54688 441.63437 366.25 440.86874Q366.96875 440.10312 366.96875 438.72812Z" fill-rule="nonzero"/><path fill="#000000" d="M394.1946 437.66562L392.6321 437.79062Q392.41336 436.86874 392.02274 436.44687Q391.3821 435.75937 390.4446 435.75937Q389.6946 435.75937 389.1165 436.18124Q388.3665 436.72812 387.929 437.775Q387.5071 438.82187 387.4915 440.75937Q388.0696 439.88437 388.8821 439.4625Q389.71024 439.04062 390.6165 439.04062Q392.21024 439.04062 393.3196 440.2125Q394.429 441.36874 394.429 443.2125Q394.429 444.43124 393.89774 445.47812Q393.3821 446.50937 392.46024 447.07187Q391.554 447.61874 390.39774 447.61874Q388.41336 447.61874 387.16336 446.16562Q385.91336 444.7125 385.91336 441.36874Q385.91336 437.63437 387.304 435.93124Q388.5071 434.4625 390.53836 434.4625Q392.0696 434.4625 393.03836 435.32187Q394.0071 436.16562 394.1946 437.66562ZM387.7415 443.22812Q387.7415 444.04062 388.08524 444.79062Q388.429 445.54062 389.054 445.93124Q389.679 446.32187 390.3665 446.32187Q391.3665 446.32187 392.08524 445.50937Q392.804 444.69687 392.804 443.30624Q392.804 441.97812 392.08524 441.2125Q391.3821 440.43124 390.304 440.43124Q389.22586 440.43124 388.47586 441.2125Q387.7415 441.97812 387.7415 443.22812ZM395.9915 441.04062Q395.9915 438.75937 396.46024 437.36874Q396.929 435.97812 397.85086 435.22812Q398.78836 434.4625 400.1946 434.4625Q401.22586 434.4625 402.0071 434.88437Q402.78836 435.29062 403.28836 436.0875Q403.804 436.86874 404.10086 438.00937Q404.39774 439.13437 404.39774 441.04062Q404.39774 443.30624 403.929 444.7125Q403.46024 446.10312 402.52274 446.86874Q401.60086 447.61874 400.1946 447.61874Q398.3196 447.61874 397.2571 446.29062Q395.9915 444.68124 395.9915 441.04062ZM397.6165 441.04062Q397.6165 444.2125 398.35086 445.275Q399.10086 446.32187 400.1946 446.32187Q401.27274 446.32187 402.02274 445.275Q402.77274 444.2125 402.77274 441.04062Q402.77274 437.86874 402.02274 436.82187Q401.27274 435.775 400.179 435.775Q399.08524 435.775 398.429 436.69687Q397.6165 437.86874 397.6165 441.04062ZM405.8196 443.525L405.8196 441.94687L410.679 441.94687L410.679 443.525L405.8196 443.525ZM412.10086 436.19687L412.10086 434.68124L420.429 434.68124L420.429 435.91562Q419.21024 437.22812 417.9915 439.4Q416.78836 441.55624 416.1321 443.85312Q415.64774 445.47812 415.52274 447.4L413.89774 447.4Q413.929 445.88437 414.4915 443.72812Q415.0696 441.57187 416.1321 439.57187Q417.1946 437.57187 418.39774 436.19687L412.10086 436.19687ZM427.054 447.4L427.054 444.32187L421.47586 444.32187L421.47586 442.86874L427.35086 434.50937L428.64774 434.50937L428.64774 442.86874L430.3821 442.86874L430.3821 444.32187L428.64774 444.32187L428.64774 447.4L427.054 447.4ZM427.054 442.86874L427.054 437.05624L423.02274 442.86874L427.054 442.86874Z" fill-rule="nonzero"/><path fill="#000000" d="M447.84238 436.19687L447.84238 434.68124L456.1705 434.68124L456.1705 435.91562Q454.95175 437.22812 453.733 439.4Q452.52988 441.55624 451.87363 443.85312Q451.38925 445.47812 451.26425 447.4L449.63925 447.4Q449.6705 445.88437 450.233 443.72812Q450.81113 441.57187 451.87363 439.57187Q452.93613 437.57187 454.13925 436.19687L447.84238 436.19687ZM457.733 444.025L459.38925 443.88437Q459.57675 445.10312 460.24863 445.7125Q460.9205 446.32187 461.87363 446.32187Q463.01425 446.32187 463.7955 445.4625Q464.59238 444.60312 464.59238 443.16562Q464.59238 441.82187 463.82675 441.04062Q463.07675 440.25937 461.84238 440.25937Q461.07675 440.25937 460.45175 440.60312Q459.84238 440.94687 459.49863 441.50937L458.01425 441.30624L459.26425 434.69687L465.6705 434.69687L465.6705 436.19687L460.52988 436.19687L459.82675 439.66562Q460.99863 438.85312 462.26425 438.85312Q463.95175 438.85312 465.108 440.025Q466.27988 441.19687 466.27988 443.025Q466.27988 444.775 465.24863 446.05624Q464.01425 447.61874 461.87363 447.61874Q460.108 447.61874 458.99863 446.63437Q457.88925 445.65 457.733 444.025ZM467.56113 443.525L467.56113 441.94687L472.4205 441.94687L472.4205 443.525L467.56113 443.525ZM476.1705 440.41562Q475.18613 440.05624 474.70175 439.38437Q474.233 438.7125 474.233 437.79062Q474.233 436.38437 475.233 435.43124Q476.24863 434.4625 477.93613 434.4625Q479.62363 434.4625 480.63925 435.44687Q481.6705 436.41562 481.6705 437.82187Q481.6705 438.72812 481.20175 439.4Q480.733 440.05624 479.77988 440.41562Q480.96738 440.80624 481.57675 441.66562Q482.20175 442.525 482.20175 443.7125Q482.20175 445.36874 481.02988 446.49374Q479.858 447.61874 477.95175 447.61874Q476.0455 447.61874 474.87363 446.49374Q473.71738 445.35312 473.71738 443.66562Q473.71738 442.41562 474.34238 441.57187Q474.983 440.7125 476.1705 440.41562ZM475.84238 437.72812Q475.84238 438.65 476.43613 439.22812Q477.02988 439.80624 477.96738 439.80624Q478.87363 439.80624 479.45175 439.22812Q480.0455 438.65 480.0455 437.82187Q480.0455 436.94687 479.43613 436.35312Q478.84238 435.75937 477.95175 435.75937Q477.0455 435.75937 476.43613 436.3375Q475.84238 436.91562 475.84238 437.72812ZM475.34238 443.68124Q475.34238 444.35312 475.65488 444.99374Q475.983 445.61874 476.608 445.97812Q477.24863 446.32187 477.983 446.32187Q479.108 446.32187 479.84238 445.5875Q480.59238 444.85312 480.59238 443.72812Q480.59238 442.5875 479.82675 441.85312Q479.06113 441.10312 477.9205 441.10312Q476.81113 441.10312 476.07675 441.8375Q475.34238 442.57187 475.34238 443.68124ZM483.96738 444.41562L485.483 444.275Q485.68613 445.35312 486.21738 445.8375Q486.76425 446.32187 487.62363 446.32187Q488.358 446.32187 488.90488 445.99374Q489.45175 445.65 489.7955 445.10312Q490.15488 444.54062 490.38925 443.5875Q490.62363 442.63437 490.62363 441.65Q490.62363 441.54062 490.62363 441.3375Q490.13925 442.0875 489.31113 442.55624Q488.49863 443.025 487.5455 443.025Q485.95175 443.025 484.84238 441.86874Q483.733 440.7125 483.733 438.80624Q483.733 436.85312 484.88925 435.66562Q486.0455 434.4625 487.77988 434.4625Q489.0455 434.4625 490.07675 435.15Q491.12363 435.82187 491.65488 437.07187Q492.20175 438.32187 492.20175 440.69687Q492.20175 443.16562 491.65488 444.63437Q491.12363 446.0875 490.06113 446.85312Q489.01425 447.61874 487.59238 447.61874Q486.07675 447.61874 485.108 446.79062Q484.15488 445.94687 483.96738 444.41562ZM490.45175 438.72812Q490.45175 437.36874 489.71738 436.57187Q488.99863 435.775 487.983 435.775Q486.9205 435.775 486.13925 436.63437Q485.358 437.49374 485.358 438.86874Q485.358 440.10312 486.09238 440.86874Q486.84238 441.63437 487.93613 441.63437Q489.02988 441.63437 489.733 440.86874Q490.45175 440.10312 490.45175 438.72812Z" fill-rule="nonzero"/><path fill="#000000" d="M517.20886 444.41562L518.7245 444.275Q518.9276 445.35312 519.45886 445.8375Q520.00574 446.32187 520.8651 446.32187Q521.5995 446.32187 522.14636 445.99374Q522.69324 445.65 523.037 445.10312Q523.39636 444.54062 523.63074 443.5875Q523.8651 442.63437 523.8651 441.65Q523.8651 441.54062 523.8651 441.3375Q523.38074 442.0875 522.5526 442.55624Q521.7401 443.025 520.787 443.025Q519.19324 443.025 518.08386 441.86874Q516.9745 440.7125 516.9745 438.80624Q516.9745 436.85312 518.13074 435.66562Q519.287 434.4625 521.02136 434.4625Q522.287 434.4625 523.31824 435.15Q524.3651 435.82187 524.89636 437.07187Q525.44324 438.32187 525.44324 440.69687Q525.44324 443.16562 524.89636 444.63437Q524.3651 446.0875 523.3026 446.85312Q522.25574 447.61874 520.83386 447.61874Q519.31824 447.61874 518.3495 446.79062Q517.39636 445.94687 517.20886 444.41562ZM523.69324 438.72812Q523.69324 437.36874 522.95886 436.57187Q522.2401 435.775 521.2245 435.775Q520.162 435.775 519.38074 436.63437Q518.5995 437.49374 518.5995 438.86874Q518.5995 440.10312 519.33386 440.86874Q520.08386 441.63437 521.1776 441.63437Q522.27136 441.63437 522.9745 440.86874Q523.69324 440.10312 523.69324 438.72812ZM526.9745 441.04062Q526.9745 438.75937 527.44324 437.36874Q527.912 435.97812 528.83386 435.22812Q529.77136 434.4625 531.1776 434.4625Q532.20886 434.4625 532.9901 434.88437Q533.77136 435.29062 534.27136 436.0875Q534.787 436.86874 535.08386 438.00937Q535.38074 439.13437 535.38074 441.04062Q535.38074 443.30624 534.912 444.7125Q534.44324 446.10312 533.50574 446.86874Q532.58386 447.61874 531.1776 447.61874Q529.3026 447.61874 528.2401 446.29062Q526.9745 444.68124 526.9745 441.04062ZM528.5995 441.04062Q528.5995 444.2125 529.33386 445.275Q530.08386 446.32187 531.1776 446.32187Q532.25574 446.32187 533.00574 445.275Q533.75574 444.2125 533.75574 441.04062Q533.75574 437.86874 533.00574 436.82187Q532.25574 435.775 531.162 435.775Q530.06824 435.775 529.412 436.69687Q528.5995 437.86874 528.5995 441.04062ZM540.7401 445.32187L540.7401 441.79062L537.2245 441.79062L537.2245 440.30624L540.7401 440.30624L540.7401 436.80624L542.2245 436.80624L542.2245 440.30624L545.7401 440.30624L545.7401 441.79062L542.2245 441.79062L542.2245 445.32187L540.7401 445.32187Z" fill-rule="nonzero"/><path fill="#757575" d="M114.890625 41.865623L114.890625 39.85L122.171875 39.834373L122.171875 46.209373Q120.5 47.5375 118.71875 48.225Q116.9375 48.896873 115.0625 48.896873Q112.53125 48.896873 110.453125 47.81875Q108.390625 46.725 107.328125 44.678123Q106.28125 42.615623 106.28125 40.084373Q106.28125 37.584373 107.328125 35.4125Q108.375 33.240623 110.34375 32.19375Q112.3125 31.131248 114.875 31.131248Q116.75 31.131248 118.25 31.740623Q119.75 32.334373 120.609375 33.4125Q121.46875 34.490623 121.90625 36.225L119.859375 36.7875Q119.46875 35.475 118.890625 34.725Q118.328125 33.975 117.25 33.521873Q116.1875 33.06875 114.890625 33.06875Q113.328125 33.06875 112.1875 33.553123Q111.0625 34.021873 110.359375 34.803123Q109.671875 35.56875 109.28125 36.490623Q108.625 38.084373 108.625 39.94375Q108.625 42.240623 109.40625 43.7875Q110.203125 45.334373 111.71875 46.084373Q113.234375 46.834373 114.921875 46.834373Q116.40625 46.834373 117.8125 46.271873Q119.21875 45.709373 119.9375 45.053123L119.9375 41.865623L114.890625 41.865623ZM134.10938 44.584373L136.28125 44.865623Q135.76562 46.771873 134.375 47.834373Q132.98438 48.88125 130.8125 48.88125Q128.07812 48.88125 126.46875 47.209373Q124.875 45.521873 124.875 42.475Q124.875 39.334373 126.484375 37.6Q128.10938 35.865623 130.6875 35.865623Q133.1875 35.865623 134.76562 37.56875Q136.35938 39.271873 136.35938 42.35Q136.35938 42.5375 136.34375 42.9125L127.0625 42.9125Q127.171875 44.959373 128.21875 46.053123Q129.26562 47.146873 130.82812 47.146873Q131.98438 47.146873 132.79688 46.5375Q133.625 45.928123 134.10938 44.584373ZM127.171875 41.178123L134.125 41.178123Q133.98438 39.615623 133.32812 38.81875Q132.32812 37.6 130.71875 37.6Q129.26562 37.6 128.26562 38.584373Q127.28125 39.553123 127.171875 41.178123ZM138.5625 48.6L138.5625 36.146873L140.45312 36.146873L140.45312 38.0375Q141.1875 36.709373 141.79688 36.2875Q142.42188 35.865623 143.15625 35.865623Q144.21875 35.865623 145.32812 36.553123L144.59375 38.50625Q143.82812 38.053123 143.04688 38.053123Q142.35938 38.053123 141.79688 38.475Q141.25 38.88125 141.01562 39.615623Q140.67188 40.740623 140.67188 42.084373L140.67188 48.6L138.5625 48.6ZM146.57812 48.6L146.57812 36.146873L148.46875 36.146873L148.46875 37.896873Q149.0625 36.990623 150.03125 36.428123Q151.0 35.865623 152.25 35.865623Q153.625 35.865623 154.5 36.44375Q155.39062 37.021873 155.76562 38.053123Q157.23438 35.865623 159.60938 35.865623Q161.45312 35.865623 162.45312 36.896873Q163.45312 37.928123 163.45312 40.053123L163.45312 48.6L161.34375 48.6L161.34375 40.75625Q161.34375 39.490623 161.14062 38.94375Q160.9375 38.38125 160.39062 38.0375Q159.85938 37.69375 159.14062 37.69375Q157.82812 37.69375 156.95312 38.56875Q156.09375 39.44375 156.09375 41.365623L156.09375 48.6L153.98438 48.6L153.98438 40.50625Q153.98438 39.1 153.46875 38.396873Q152.95312 37.69375 151.78125 37.69375Q150.89062 37.69375 150.125 38.1625Q149.375 38.63125 149.03125 39.5375Q148.6875 40.44375 148.6875 42.146873L148.6875 48.6L146.57812 48.6ZM174.70312 47.06875Q173.53125 48.053123 172.4375 48.475Q171.35938 48.88125 170.125 48.88125Q168.07812 48.88125 166.96875 47.88125Q165.875 46.88125 165.875 45.31875Q165.875 44.396873 166.28125 43.646873Q166.70312 42.896873 167.375 42.44375Q168.04688 41.975 168.89062 41.740623Q169.51562 41.584373 170.76562 41.428123Q173.32812 41.115623 174.53125 40.69375Q174.54688 40.271873 174.54688 40.146873Q174.54688 38.865623 173.9375 38.334373Q173.14062 37.615623 171.54688 37.615623Q170.04688 37.615623 169.34375 38.146873Q168.64062 38.6625 168.29688 39.990623L166.23438 39.709373Q166.51562 38.38125 167.15625 37.56875Q167.79688 36.75625 169.01562 36.31875Q170.23438 35.865623 171.84375 35.865623Q173.4375 35.865623 174.4375 36.240623Q175.4375 36.615623 175.90625 37.19375Q176.375 37.75625 176.5625 38.63125Q176.65625 39.1625 176.65625 40.56875L176.65625 43.38125Q176.65625 46.31875 176.79688 47.1Q176.9375 47.88125 177.32812 48.6L175.125 48.6Q174.79688 47.94375 174.70312 47.06875ZM174.53125 42.35Q173.375 42.81875 171.07812 43.146873Q169.78125 43.334373 169.23438 43.56875Q168.70312 43.803123 168.40625 44.25625Q168.125 44.709373 168.125 45.25625Q168.125 46.1 168.75 46.6625Q169.39062 47.225 170.625 47.225Q171.84375 47.225 172.79688 46.69375Q173.75 46.1625 174.1875 45.240623Q174.53125 44.521873 174.53125 43.13125L174.53125 42.35ZM179.57812 48.6L179.57812 36.146873L181.48438 36.146873L181.48438 37.928123Q182.85938 35.865623 185.4375 35.865623Q186.5625 35.865623 187.5 36.271873Q188.45312 36.678123 188.92188 37.334373Q189.39062 37.990623 189.57812 38.896873Q189.70312 39.475 189.70312 40.94375L189.70312 48.6L187.59375 48.6L187.59375 41.021873Q187.59375 39.740623 187.34375 39.1Q187.09375 38.459373 186.46875 38.084373Q185.84375 37.69375 185.0 37.69375Q183.65625 37.69375 182.67188 38.553123Q181.6875 39.4125 181.6875 41.803123L181.6875 48.6L179.57812 48.6ZM193.48438 53.396873L193.25 51.4125Q193.95312 51.6 194.46875 51.6Q195.17188 51.6 195.59375 51.365623Q196.01562 51.13125 196.28125 50.709373Q196.48438 50.396873 196.92188 49.146873Q196.98438 48.959373 197.10938 48.63125L192.39062 36.146873L194.65625 36.146873L197.25 43.365623Q197.75 44.725 198.15625 46.240623Q198.51562 44.7875 199.01562 43.4125L201.6875 36.146873L203.79688 36.146873L199.0625 48.81875Q198.29688 50.865623 197.875 51.63125Q197.3125 52.678123 196.57812 53.1625Q195.85938 53.646873 194.84375 53.646873Q194.23438 53.646873 193.48438 53.396873ZM204.73438 44.88125L206.82812 44.553123Q207.0 45.803123 207.79688 46.475Q208.60938 47.146873 210.04688 47.146873Q211.5 47.146873 212.20312 46.553123Q212.90625 45.959373 212.90625 45.1625Q212.90625 44.44375 212.28125 44.0375Q211.85938 43.75625 210.125 43.31875Q207.8125 42.740623 206.90625 42.31875Q206.01562 41.88125 205.54688 41.13125Q205.09375 40.365623 205.09375 39.459373Q205.09375 38.63125 205.46875 37.928123Q205.85938 37.209373 206.51562 36.740623Q207.0 36.38125 207.84375 36.13125Q208.70312 35.865623 209.67188 35.865623Q211.14062 35.865623 212.25 36.2875Q213.35938 36.709373 213.875 37.44375Q214.40625 38.1625 214.60938 39.365623L212.54688 39.646873Q212.40625 38.678123 211.73438 38.146873Q211.0625 37.6 209.82812 37.6Q208.375 37.6 207.75 38.084373Q207.125 38.56875 207.125 39.209373Q207.125 39.615623 207.39062 39.94375Q207.64062 40.2875 208.20312 40.50625Q208.51562 40.63125 210.0625 41.053123Q212.29688 41.646873 213.17188 42.0375Q214.0625 42.4125 214.5625 43.146873Q215.07812 43.865623 215.07812 44.94375Q215.07812 45.990623 214.45312 46.928123Q213.84375 47.865623 212.6875 48.38125Q211.53125 48.88125 210.0625 48.88125Q207.64062 48.88125 206.35938 47.88125Q205.09375 46.865623 204.73438 44.88125ZM224.85938 48.6L224.85938 31.412498L231.32812 31.412498Q233.04688 31.412498 233.95312 31.584373Q235.21875 31.787498 236.0625 32.38125Q236.92188 32.975 237.4375 34.053123Q237.96875 35.115623 237.96875 36.38125Q237.96875 38.584373 236.5625 40.1Q235.17188 41.615623 231.53125 41.615623L227.125 41.615623L227.125 48.6L224.85938 48.6ZM227.125 39.584373L231.5625 39.584373Q233.76562 39.584373 234.6875 38.771873Q235.625 37.94375 235.625 36.459373Q235.625 35.38125 235.07812 34.615623Q234.53125 33.85 233.64062 33.6Q233.0625 33.44375 231.51562 33.44375L227.125 33.44375L227.125 39.584373ZM239.79688 42.38125Q239.79688 38.9125 241.71875 37.25625Q243.32812 35.865623 245.64062 35.865623Q248.20312 35.865623 249.82812 37.553123Q251.45312 39.240623 251.45312 42.19375Q251.45312 44.6 250.73438 45.975Q250.01562 47.35 248.64062 48.115623Q247.26562 48.88125 245.64062 48.88125Q243.01562 48.88125 241.40625 47.209373Q239.79688 45.521873 239.79688 42.38125ZM241.96875 42.38125Q241.96875 44.771873 243.0 45.959373Q244.04688 47.146873 245.64062 47.146873Q247.20312 47.146873 248.25 45.959373Q249.29688 44.75625 249.29688 42.303123Q249.29688 39.990623 248.23438 38.803123Q247.1875 37.615623 245.64062 37.615623Q244.04688 37.615623 243.0 38.803123Q241.96875 39.990623 241.96875 42.38125ZM253.57812 53.365623L253.57812 36.146873L255.5 36.146873L255.5 37.771873Q256.1875 36.81875 257.03125 36.35Q257.89062 35.865623 259.10938 35.865623Q260.70312 35.865623 261.92188 36.69375Q263.14062 37.50625 263.76562 39.00625Q264.39062 40.50625 264.39062 42.2875Q264.39062 44.19375 263.70312 45.725Q263.01562 47.25625 261.70312 48.06875Q260.40625 48.88125 258.96875 48.88125Q257.90625 48.88125 257.0625 48.44375Q256.23438 47.990623 255.6875 47.303123L255.6875 53.365623L253.57812 53.365623ZM255.5 42.44375Q255.5 44.85 256.46875 46.00625Q257.4375 47.146873 258.82812 47.146873Q260.23438 47.146873 261.23438 45.959373Q262.23438 44.771873 262.23438 42.271873Q262.23438 39.896873 261.25 38.709373Q260.28125 37.521873 258.92188 37.521873Q257.5625 37.521873 256.53125 38.7875Q255.5 40.0375 255.5 42.44375ZM275.73438 48.6L275.73438 46.771873Q274.28125 48.88125 271.79688 48.88125Q270.6875 48.88125 269.73438 48.459373Q268.78125 48.0375 268.3125 47.396873Q267.85938 46.75625 267.67188 45.834373Q267.53125 45.209373 267.53125 43.865623L267.53125 36.146873L269.64062 36.146873L269.64062 43.053123Q269.64062 44.709373 269.78125 45.2875Q269.96875 46.115623 270.60938 46.6Q271.26562 47.06875 272.21875 47.06875Q273.15625 47.06875 273.98438 46.584373Q274.82812 46.084373 275.17188 45.25625Q275.51562 44.4125 275.51562 42.81875L275.51562 36.146873L277.625 36.146873L277.625 48.6L275.73438 48.6ZM281.53125 48.6L281.53125 31.412498L283.64062 31.412498L283.64062 48.6L281.53125 48.6ZM295.70312 47.06875Q294.53125 48.053123 293.4375 48.475Q292.35938 48.88125 291.125 48.88125Q289.07812 48.88125 287.96875 47.88125Q286.875 46.88125 286.875 45.31875Q286.875 44.396873 287.28125 43.646873Q287.70312 42.896873 288.375 42.44375Q289.04688 41.975 289.89062 41.740623Q290.51562 41.584373 291.76562 41.428123Q294.32812 41.115623 295.53125 40.69375Q295.54688 40.271873 295.54688 40.146873Q295.54688 38.865623 294.9375 38.334373Q294.14062 37.615623 292.54688 37.615623Q291.04688 37.615623 290.34375 38.146873Q289.64062 38.6625 289.29688 39.990623L287.23438 39.709373Q287.51562 38.38125 288.15625 37.56875Q288.79688 36.75625 290.01562 36.31875Q291.23438 35.865623 292.84375 35.865623Q294.4375 35.865623 295.4375 36.240623Q296.4375 36.615623 296.90625 37.19375Q297.375 37.75625 297.5625 38.63125Q297.65625 39.1625 297.65625 40.56875L297.65625 43.38125Q297.65625 46.31875 297.79688 47.1Q297.9375 47.88125 298.32812 48.6L296.125 48.6Q295.79688 47.94375 295.70312 47.06875ZM295.53125 42.35Q294.375 42.81875 292.07812 43.146873Q290.78125 43.334373 290.23438 43.56875Q289.70312 43.803123 289.40625 44.25625Q289.125 44.709373 289.125 45.25625Q289.125 46.1 289.75 46.6625Q290.39062 47.225 291.625 47.225Q292.84375 47.225 293.79688 46.69375Q294.75 46.1625 295.1875 45.240623Q295.53125 44.521873 295.53125 43.13125L295.53125 42.35ZM305.1875 46.709373L305.5 48.56875Q304.60938 48.771873 303.90625 48.771873Q302.75 48.771873 302.10938 48.4125Q301.48438 48.0375 301.21875 47.44375Q300.96875 46.85 300.96875 44.959373L300.96875 37.7875L299.42188 37.7875L299.42188 36.146873L300.96875 36.146873L300.96875 33.06875L303.0625 31.803123L303.0625 36.146873L305.1875 36.146873L305.1875 37.7875L303.0625 37.7875L303.0625 45.06875Q303.0625 45.975 303.17188 46.240623Q303.29688 46.490623 303.54688 46.646873Q303.79688 46.7875 304.26562 46.7875Q304.60938 46.7875 305.1875 46.709373ZM307.59375 33.85L307.59375 31.412498L309.70312 31.412498L309.70312 33.85L307.59375 33.85ZM307.59375 48.6L307.59375 36.146873L309.70312 36.146873L309.70312 48.6L307.59375 48.6ZM311.79688 42.38125Q311.79688 38.9125 313.71875 37.25625Q315.32812 35.865623 317.64062 35.865623Q320.20312 35.865623 321.82812 37.553123Q323.45312 39.240623 323.45312 42.19375Q323.45312 44.6 322.73438 45.975Q322.01562 47.35 320.64062 48.115623Q319.26562 48.88125 317.64062 48.88125Q315.01562 48.88125 313.40625 47.209373Q311.79688 45.521873 311.79688 42.38125ZM313.96875 42.38125Q313.96875 44.771873 315.0 45.959373Q316.04688 47.146873 317.64062 47.146873Q319.20312 47.146873 320.25 45.959373Q321.29688 44.75625 321.29688 42.303123Q321.29688 39.990623 320.23438 38.803123Q319.1875 37.615623 317.64062 37.615623Q316.04688 37.615623 315.0 38.803123Q313.96875 39.990623 313.96875 42.38125ZM325.57812 48.6L325.57812 36.146873L327.48438 36.146873L327.48438 37.928123Q328.85938 35.865623 331.4375 35.865623Q332.5625 35.865623 333.5 36.271873Q334.45312 36.678123 334.92188 37.334373Q335.39062 37.990623 335.57812 38.896873Q335.70312 39.475 335.70312 40.94375L335.70312 48.6L333.59375 48.6L333.59375 41.021873Q333.59375 39.740623 333.34375 39.1Q333.09375 38.459373 332.46875 38.084373Q331.84375 37.69375 331.0 37.69375Q329.65625 37.69375 328.67188 38.553123Q327.6875 39.4125 327.6875 41.803123L327.6875 48.6L325.57812 48.6ZM348.53125 48.6L346.57812 48.6L346.57812 31.412498L348.6875 31.412498L348.6875 37.553123Q350.01562 35.865623 352.09375 35.865623Q353.23438 35.865623 354.26562 36.334373Q355.29688 36.803123 355.95312 37.646873Q356.60938 38.475 356.98438 39.6625Q357.35938 40.834373 357.35938 42.19375Q357.35938 45.38125 355.78125 47.13125Q354.20312 48.88125 351.98438 48.88125Q349.78125 48.88125 348.53125 47.0375L348.53125 48.6ZM348.5 42.2875Q348.5 44.521873 349.10938 45.521873Q350.10938 47.146873 351.8125 47.146873Q353.1875 47.146873 354.1875 45.94375Q355.20312 44.740623 355.20312 42.365623Q355.20312 39.928123 354.23438 38.771873Q353.28125 37.6 351.90625 37.6Q350.51562 37.6 349.5 38.803123Q348.5 40.00625 348.5 42.2875ZM360.48438 53.396873L360.25 51.4125Q360.95312 51.6 361.46875 51.6Q362.17188 51.6 362.59375 51.365623Q363.01562 51.13125 363.28125 50.709373Q363.48438 50.396873 363.92188 49.146873Q363.98438 48.959373 364.10938 48.63125L359.39062 36.146873L361.65625 36.146873L364.25 43.365623Q364.75 44.725 365.15625 46.240623Q365.51562 44.7875 366.01562 43.4125L368.6875 36.146873L370.79688 36.146873L366.0625 48.81875Q365.29688 50.865623 364.875 51.63125Q364.3125 52.678123 363.57812 53.1625Q362.85938 53.646873 361.84375 53.646873Q361.23438 53.646873 360.48438 53.396873ZM377.96875 48.6L384.5625 31.412498L387.01562 31.412498L394.04688 48.6L391.45312 48.6L389.45312 43.396873L382.26562 43.396873L380.375 48.6L377.96875 48.6ZM382.92188 41.5375L388.75 41.5375L386.95312 36.7875Q386.14062 34.615623 385.73438 33.225Q385.40625 34.88125 384.8125 36.50625L382.92188 41.5375ZM394.20312 49.63125L396.25 49.94375Q396.375 50.88125 396.96875 51.31875Q397.75 51.9125 399.10938 51.9125Q400.57812 51.9125 401.375 51.31875Q402.17188 50.740623 402.45312 49.678123Q402.60938 49.0375 402.59375 46.975Q401.21875 48.6 399.15625 48.6Q396.59375 48.6 395.1875 46.75625Q393.78125 44.896873 393.78125 42.303123Q393.78125 40.521873 394.42188 39.021873Q395.0625 37.50625 396.28125 36.69375Q397.51562 35.865623 399.17188 35.865623Q401.375 35.865623 402.79688 37.646873L402.79688 36.146873L404.75 36.146873L404.75 46.9125Q404.75 49.81875 404.15625 51.021873Q403.5625 52.240623 402.28125 52.94375Q401.0 53.646873 399.125 53.646873Q396.89062 53.646873 395.51562 52.646873Q394.15625 51.646873 394.20312 49.63125ZM395.9375 42.146873Q395.9375 44.6 396.90625 45.725Q397.89062 46.85 399.35938 46.85Q400.8125 46.85 401.79688 45.740623Q402.78125 44.615623 402.78125 42.225Q402.78125 39.94375 401.76562 38.7875Q400.75 37.615623 399.3125 37.615623Q397.90625 37.615623 396.92188 38.75625Q395.9375 39.896873 395.9375 42.146873ZM417.10938 44.584373L419.28125 44.865623Q418.76562 46.771873 417.375 47.834373Q415.98438 48.88125 413.8125 48.88125Q411.07812 48.88125 409.46875 47.209373Q407.875 45.521873 407.875 42.475Q407.875 39.334373 409.48438 37.6Q411.10938 35.865623 413.6875 35.865623Q416.1875 35.865623 417.76562 37.56875Q419.35938 39.271873 419.35938 42.35Q419.35938 42.5375 419.34375 42.9125L410.0625 42.9125Q410.17188 44.959373 411.21875 46.053123Q412.26562 47.146873 413.82812 47.146873Q414.98438 47.146873 415.79688 46.5375Q416.625 45.928123 417.10938 44.584373ZM410.17188 41.178123L417.125 41.178123Q416.98438 39.615623 416.32812 38.81875Q415.32812 37.6 413.71875 37.6Q412.26562 37.6 411.26562 38.584373Q410.28125 39.553123 410.17188 41.178123ZM436.89062 41.865623L436.89062 39.85L444.17188 39.834373L444.17188 46.209373Q442.5 47.5375 440.71875 48.225Q438.9375 48.896873 437.0625 48.896873Q434.53125 48.896873 432.45312 47.81875Q430.39062 46.725 429.32812 44.678123Q428.28125 42.615623 428.28125 40.084373Q428.28125 37.584373 429.32812 35.4125Q430.375 33.240623 432.34375 32.19375Q434.3125 31.131248 436.875 31.131248Q438.75 31.131248 440.25 31.740623Q441.75 32.334373 442.60938 33.4125Q443.46875 34.490623 443.90625 36.225L441.85938 36.7875Q441.46875 35.475 440.89062 34.725Q440.32812 33.975 439.25 33.521873Q438.1875 33.06875 436.89062 33.06875Q435.32812 33.06875 434.1875 33.553123Q433.0625 34.021873 432.35938 34.803123Q431.67188 35.56875 431.28125 36.490623Q430.625 38.084373 430.625 39.94375Q430.625 42.240623 431.40625 43.7875Q432.20312 45.334373 433.71875 46.084373Q435.23438 46.834373 436.92188 46.834373Q438.40625 46.834373 439.8125 46.271873Q441.21875 45.709373 441.9375 45.053123L441.9375 41.865623L436.89062 41.865623ZM447.5625 48.6L447.5625 36.146873L449.45312 36.146873L449.45312 38.0375Q450.1875 36.709373 450.79688 36.2875Q451.42188 35.865623 452.15625 35.865623Q453.21875 35.865623 454.32812 36.553123L453.59375 38.50625Q452.82812 38.053123 452.04688 38.053123Q451.35938 38.053123 450.79688 38.475Q450.25 38.88125 450.01562 39.615623Q449.67188 40.740623 449.67188 42.084373L449.67188 48.6L447.5625 48.6ZM454.79688 42.38125Q454.79688 38.9125 456.71875 37.25625Q458.32812 35.865623 460.64062 35.865623Q463.20312 35.865623 464.82812 37.553123Q466.45312 39.240623 466.45312 42.19375Q466.45312 44.6 465.73438 45.975Q465.01562 47.35 463.64062 48.115623Q462.26562 48.88125 460.64062 48.88125Q458.01562 48.88125 456.40625 47.209373Q454.79688 45.521873 454.79688 42.38125ZM456.96875 42.38125Q456.96875 44.771873 458.0 45.959373Q459.04688 47.146873 460.64062 47.146873Q462.20312 47.146873 463.25 45.959373Q464.29688 44.75625 464.29688 42.303123Q464.29688 39.990623 463.23438 38.803123Q462.1875 37.615623 460.64062 37.615623Q459.04688 37.615623 458.0 38.803123Q456.96875 39.990623 456.96875 42.38125ZM476.73438 48.6L476.73438 46.771873Q475.28125 48.88125 472.79688 48.88125Q471.6875 48.88125 470.73438 48.459373Q469.78125 48.0375 469.3125 47.396873Q468.85938 46.75625 468.67188 45.834373Q468.53125 45.209373 468.53125 43.865623L468.53125 36.146873L470.64062 36.146873L470.64062 43.053123Q470.64062 44.709373 470.78125 45.2875Q470.96875 46.115623 471.60938 46.6Q472.26562 47.06875 473.21875 47.06875Q474.15625 47.06875 474.98438 46.584373Q475.82812 46.084373 476.17188 45.25625Q476.51562 44.4125 476.51562 42.81875L476.51562 36.146873L478.625 36.146873L478.625 48.6L476.73438 48.6ZM482.57812 53.365623L482.57812 36.146873L484.5 36.146873L484.5 37.771873Q485.1875 36.81875 486.03125 36.35Q486.89062 35.865623 488.10938 35.865623Q489.70312 35.865623 490.92188 36.69375Q492.14062 37.50625 492.76562 39.00625Q493.39062 40.50625 493.39062 42.2875Q493.39062 44.19375 492.70312 45.725Q492.01562 47.25625 490.70312 48.06875Q489.40625 48.88125 487.96875 48.88125Q486.90625 48.88125 486.0625 48.44375Q485.23438 47.990623 484.6875 47.303123L484.6875 53.365623L482.57812 53.365623ZM484.5 42.44375Q484.5 44.85 485.46875 46.00625Q486.4375 47.146873 487.82812 47.146873Q489.23438 47.146873 490.23438 45.959373Q491.23438 44.771873 491.23438 42.271873Q491.23438 39.896873 490.25 38.709373Q489.28125 37.521873 487.92188 37.521873Q486.5625 37.521873 485.53125 38.7875Q484.5 40.0375 484.5 42.44375Z" fill-rule="nonzero"/></svg>