<?xml version="1.0" encoding="utf-8"?>
<!-- Generator: Adobe Illustrator 25.4.1, SVG Export Plug-In . SVG Version: 6.00 Build 0)  -->
<svg version="1.1" id="Ebene_1" xmlns="http://www.w3.org/2000/svg" xmlns:xlink="http://www.w3.org/1999/xlink" x="0px" y="0px"
	 viewBox="0 0 118 139" style="enable-background:new 0 0 118 139;" xml:space="preserve">
<style type="text/css">
	.st0{fill:#FB8072;}
</style>
<rect class="st0" width="118" height="139"/>
<g transform="translate(0.000000,139.000000) scale(0.100000,-0.100000)">
	<path d="M565,1294c-33-78-236-567-368-885C122,230,60,78,58,71c-2-10,107-12,520-12c288,0,526,2,529,5s-62,169-145,368
		c-84,200-147,365-142,366c6,2,10,8,10,14s-6,8-13,5c-10-4-43,65-116,241c-56,136-106,253-110,261C584,1330,578,1324,565,1294z
		 M568,278c-10-6-10-8,0-8c9,0,12-26,12-95V80H334C141,80,89,83,93,93c50,128,74,177,87,177c10,0,11,3,3,8c-15,9,196,522,216,522
		c8,0,11,6,7,16s30,105,81,229l88,212l3-485C580,390,578,285,568,278z M804,750c106-256,189-467,184-469c-5-1-2-8,6-15
		c12-9,86-166,86-182c0-2-110-4-245-4H590v95c0,69,3,95,13,96c9,0,9,2,0,6c-10,3-13,113-12,491c0,308,4,480,10,467
		C606,1224,697,1006,804,750z"/>
	<path d="M425,810c-3-5-1-10,4-10c6,0,11,5,11,10c0,6-2,10-4,10C433,820,428,816,425,810z"/>
	<path d="M520,810c0-5,5-10,11-10c5,0,7,5,4,10c-3,6-8,10-11,10C522,820,520,816,520,810z"/>
	<path d="M550,810c0-5,5-10,10-10c6,0,10,5,10,10c0,6-4,10-10,10C555,820,550,816,550,810z"/>
	<path d="M650,810c0-5,5-10,11-10c5,0,7,5,4,10c-3,6-8,10-11,10C652,820,650,816,650,810z"/>
	<path d="M680,810c0-5,5-10,10-10c6,0,10,5,10,10c0,6-4,10-10,10C685,820,680,816,680,810z"/>
	<path d="M715,810c-3-5-1-10,4-10c6,0,11,5,11,10c0,6-2,10-4,10C723,820,718,816,715,810z"/>
	<path d="M5,810c-3-5-1-10,4-10c6,0,11,5,11,10c0,6-2,10-4,10C13,820,8,816,5,810z"/>
	<path d="M100,810c0-5,5-10,11-10c5,0,7,5,4,10c-3,6-8,10-11,10C102,820,100,816,100,810z"/>
	<path d="M135,810c-3-5-1-10,4-10c6,0,11,5,11,10c0,6-2,10-4,10C143,820,138,816,135,810z"/>
	<path d="M230,810c0-5,5-10,11-10c5,0,7,5,4,10c-3,6-8,10-11,10C232,820,230,816,230,810z"/>
	<path d="M260,810c0-5,5-10,10-10c6,0,10,5,10,10c0,6-4,10-10,10C265,820,260,816,260,810z"/>
	<path d="M295,810c-3-5-1-10,4-10c6,0,11,5,11,10c0,6-2,10-4,10C303,820,298,816,295,810z"/>
	<path d="M845,810c-3-5-1-10,4-10c6,0,11,5,11,10c0,6-2,10-4,10C853,820,848,816,845,810z"/>
	<path d="M940,810c0-5,5-10,11-10c5,0,7,5,4,10c-3,6-8,10-11,10C942,820,940,816,940,810z"/>
	<path d="M975,810c-3-5-1-10,4-10c6,0,11,5,11,10c0,6-2,10-4,10C983,820,978,816,975,810z"/>
	<path d="M1070,810c0-5,5-10,11-10c5,0,7,5,4,10c-3,6-8,10-11,10C1072,820,1070,816,1070,810z"/>
	<path d="M1100,810c0-5,5-10,10-10c6,0,10,5,10,10c0,6-4,10-10,10C1105,820,1100,816,1100,810z"/>
	<path d="M1135,810c-3-5-1-10,4-10c6,0,11,5,11,10c0,6-2,10-4,10C1143,820,1138,816,1135,810z"/>
</g>
</svg>
