<svg version="1.1" viewBox="0.0 0.0 573.0 478.0" fill="none" stroke="none" stroke-linecap="square" stroke-miterlimit="10" width="573" height="478" xmlns:xlink="http://www.w3.org/1999/xlink" xmlns="http://www.w3.org/2000/svg"><path fill="#ffffff" d="M0 0L573.0 0L573.0 478.0L0 478.0L0 0Z" fill-rule="nonzero"/><path stroke="#333333" stroke-width="1.0" stroke-linecap="butt" d="M115.5 74.5L115.5 376.5" fill-rule="nonzero"/><path stroke="#cccccc" stroke-width="1.0" stroke-linecap="butt" d="M236.5 74.5L236.5 376.5" fill-rule="nonzero"/><path stroke="#cccccc" stroke-width="1.0" stroke-linecap="butt" d="M357.5 74.5L357.5 376.5" fill-rule="nonzero"/><path stroke="#cccccc" stroke-width="1.0" stroke-linecap="butt" d="M478.5 74.5L478.5 376.5" fill-rule="nonzero"/><path stroke="#333333" stroke-width="1.0" stroke-linecap="butt" d="M110.5 376.5L549.5 376.5" fill-rule="nonzero"/><path stroke="#cccccc" stroke-width="1.0" stroke-linecap="butt" d="M110.5 300.5L549.5 300.5" fill-rule="nonzero"/><path stroke="#cccccc" stroke-width="1.0" stroke-linecap="butt" d="M110.5 225.5L549.5 225.5" fill-rule="nonzero"/><path stroke="#cccccc" stroke-width="1.0" stroke-linecap="butt" d="M110.5 149.5L549.5 149.5" fill-rule="nonzero"/><path stroke="#cccccc" stroke-width="1.0" stroke-linecap="butt" d="M110.5 74.5L549.5 74.5" fill-rule="nonzero"/><clipPath id="id_0"><path d="M110.9 74.333336L549.1 74.333336L549.1 376.1L110.9 376.1L110.9 74.333336Z" clip-rule="nonzero"/></clipPath><path fill="#4285f4" clip-path="url(#id_0)" d="M407.90402 351.7961C407.90402 354.28137 405.88928 356.2961 403.40402 356.2961C400.91873 356.2961 398.90402 354.28137 398.90402 351.7961C398.90402 349.31082 400.91873 347.2961 403.40402 347.2961C405.88928 347.2961 407.90402 349.31082 407.90402 351.7961Z" fill-rule="nonzero"/><path fill="#4285f4" clip-path="url(#id_0)" d="M259.99405 255.34172C259.99405 257.827 257.9793 259.8417 255.49403 259.8417C253.00876 259.8417 250.99403 257.827 250.99403 255.34172C250.99403 252.85643 253.00876 250.84172 255.49403 250.84172C257.9793 250.84172 259.99405 252.85643 259.99405 255.34172Z" fill-rule="nonzero"/><path fill="#4285f4" clip-path="url(#id_0)" d="M326.02042 105.633026C326.02042 108.11831 324.00568 110.133026 321.52042 110.133026C319.03513 110.133026 317.02042 108.11831 317.02042 105.633026C317.02042 103.14774 319.03513 101.133026 321.52042 101.133026C324.00568 101.133026 326.02042 103.14774 326.02042 105.633026Z" fill-rule="nonzero"/><path fill="#4285f4" clip-path="url(#id_0)" d="M239.85008 314.26212C239.85008 316.7474 237.83537 318.76212 235.35008 318.76212C232.8648 318.76212 230.85008 316.7474 230.85008 314.26212C230.85008 311.77682 232.8648 309.76212 235.35008 309.76212C237.83537 309.76212 239.85008 311.77682 239.85008 314.26212Z" fill-rule="nonzero"/><path fill="#4285f4" clip-path="url(#id_0)" d="M135.20087 361.2532C135.20087 363.7385 133.18614 365.7532 130.70087 365.7532C128.21558 365.7532 126.20086 363.7385 126.20086 361.2532C126.20086 358.76794 128.21558 356.7532 130.70087 356.7532C133.18614 356.7532 135.20087 358.76794 135.20087 361.2532Z" fill-rule="nonzero"/><path fill="#4285f4" clip-path="url(#id_0)" d="M336.1136 208.5736C336.1136 211.05887 334.09885 213.0736 331.6136 213.0736C329.1283 213.0736 327.1136 211.05887 327.1136 208.5736C327.1136 206.0883 329.1283 204.0736 331.6136 204.0736C334.09885 204.0736 336.1136 206.0883 336.1136 208.5736Z" fill-rule="nonzero"/><path fill="#4285f4" clip-path="url(#id_0)" d="M546.8167 177.83653C546.8167 180.32182 544.802 182.33653 542.3167 182.33653C539.8314 182.33653 537.8167 180.32182 537.8167 177.83653C537.8167 175.35126 539.8314 173.33653 542.3167 173.33653C544.802 173.33653 546.8167 175.35126 546.8167 177.83653Z" fill-rule="nonzero"/><path fill="#4285f4" clip-path="url(#id_0)" d="M298.13858 337.91037C298.13858 340.39563 296.12384 342.41037 293.63858 342.41037C291.1533 342.41037 289.13858 340.39563 289.13858 337.91037C289.13858 335.42508 291.1533 333.41037 293.63858 333.41037C296.12384 333.41037 298.13858 335.42508 298.13858 337.91037Z" fill-rule="nonzero"/><path fill="#4285f4" clip-path="url(#id_0)" d="M122.18328 365.83798C122.18328 368.32324 120.168564 370.33798 117.68328 370.33798C115.198 370.33798 113.18328 368.32324 113.18328 365.83798C113.18328 363.3527 115.198 361.33798 117.68328 361.33798C120.168564 361.33798 122.18328 363.3527 122.18328 365.83798Z" fill-rule="nonzero"/><path fill="#4285f4" clip-path="url(#id_0)" d="M124.21766 348.1492C124.21766 350.6345 122.20294 352.6492 119.71766 352.6492C117.232376 352.6492 115.21766 350.6345 115.21766 348.1492C115.21766 345.6639 117.232376 343.6492 119.71766 343.6492C122.20294 343.6492 124.21766 345.6639 124.21766 348.1492Z" fill-rule="nonzero"/><path fill="#4285f4" clip-path="url(#id_0)" d="M247.4911 281.1468C247.4911 283.63208 245.47638 285.6468 242.9911 285.6468C240.50583 285.6468 238.4911 283.63208 238.4911 281.1468C238.4911 278.6615 240.50583 276.6468 242.9911 276.6468C245.47638 276.6468 247.4911 278.6615 247.4911 281.1468Z" fill-rule="nonzero"/><path fill="#4285f4" clip-path="url(#id_0)" d="M231.1495 314.8875C231.1495 317.3728 229.13478 319.3875 226.6495 319.3875C224.16422 319.3875 222.1495 317.3728 222.1495 314.8875C222.1495 312.40225 224.16422 310.3875 226.6495 310.3875C229.13478 310.3875 231.1495 312.40225 231.1495 314.8875Z" fill-rule="nonzero"/><path fill="#4285f4" clip-path="url(#id_0)" d="M243.44052 343.1971C243.44052 345.6824 241.4258 347.6971 238.94052 347.6971C236.45523 347.6971 234.44052 345.6824 234.44052 343.1971C234.44052 340.71182 236.45523 338.6971 238.94052 338.6971C241.4258 338.6971 243.44052 340.71182 243.44052 343.1971Z" fill-rule="nonzero"/><path fill="#4285f4" clip-path="url(#id_0)" d="M125.04715 320.81503C125.04715 323.3003 123.03243 325.31503 120.54715 325.31503C118.06187 325.31503 116.04715 323.3003 116.04715 320.81503C116.04715 318.32974 118.06187 316.31503 120.54715 316.31503C123.03243 316.31503 125.04715 318.32974 125.04715 320.81503Z" fill-rule="nonzero"/><path fill="#4285f4" clip-path="url(#id_0)" d="M215.30438 332.17975C215.30438 334.66504 213.28966 336.67975 210.80438 336.67975C208.3191 336.67975 206.30438 334.66504 206.30438 332.17975C206.30438 329.69446 208.3191 327.67975 210.80438 327.67975C213.28966 327.67975 215.30438 329.69446 215.30438 332.17975Z" fill-rule="nonzero"/><path fill="#4285f4" clip-path="url(#id_0)" d="M217.56279 344.10916C217.56279 346.59445 215.54807 348.60916 213.06279 348.60916C210.5775 348.60916 208.56279 346.59445 208.56279 344.10916C208.56279 341.62387 210.5775 339.60916 213.06279 339.60916C215.54807 339.60916 217.56279 341.62387 217.56279 344.10916Z" fill-rule="nonzero"/><path fill="#000000" d="M284.96875 450.1L289.92188 437.20938L291.76562 437.20938L297.03125 450.1L295.09375 450.1L293.59375 446.19376L288.20312 446.19376L286.78125 450.1L284.96875 450.1ZM288.6875 444.80313L293.0625 444.80313L291.71875 441.24063Q291.09375 439.61563 290.79688 438.56876Q290.5625 439.80313 290.10938 441.02188L288.6875 444.80313ZM297.17188 450.1L297.17188 440.77188L298.59375 440.77188L298.59375 442.17813Q299.14062 441.19376 299.59375 440.88126Q300.0625 440.55313 300.60938 440.55313Q301.42188 440.55313 302.23438 441.06876L301.70312 442.5375Q301.10938 442.19376 300.53125 442.19376Q300.01562 442.19376 299.59375 442.50626Q299.1875 442.81876 299.01562 443.36563Q298.75 444.20938 298.75 445.20938L298.75 450.1L297.17188 450.1ZM309.57812 447.1L311.21875 447.30313Q310.82812 448.725 309.78125 449.52188Q308.73438 450.31876 307.10938 450.31876Q305.0625 450.31876 303.85938 449.05313Q302.65625 447.7875 302.65625 445.50626Q302.65625 443.1625 303.85938 441.86563Q305.07812 440.55313 307.01562 440.55313Q308.89062 440.55313 310.07812 441.83438Q311.26562 443.1 311.26562 445.4125Q311.26562 445.55313 311.25 445.83438L304.29688 445.83438Q304.375 447.38126 305.15625 448.19376Q305.95312 449.00626 307.10938 449.00626Q307.98438 449.00626 308.59375 448.55313Q309.21875 448.1 309.57812 447.1ZM304.375 444.5375L309.59375 444.5375Q309.48438 443.36563 309.0 442.77188Q308.23438 441.85 307.03125 441.85Q305.95312 441.85 305.20312 442.58438Q304.46875 443.31876 304.375 444.5375ZM319.28125 448.94376Q318.40625 449.69376 317.57812 450.00626Q316.76562 450.31876 315.84375 450.31876Q314.29688 450.31876 313.46875 449.56876Q312.65625 448.80313 312.65625 447.63126Q312.65625 446.95938 312.96875 446.39688Q313.28125 445.81876 313.78125 445.475Q314.28125 445.13126 314.92188 444.95938Q315.39062 444.83438 316.32812 444.725Q318.23438 444.49063 319.14062 444.17813Q319.15625 443.85 319.15625 443.75626Q319.15625 442.80313 318.70312 442.39688Q318.09375 441.86563 316.90625 441.86563Q315.78125 441.86563 315.25 442.25626Q314.71875 442.64688 314.46875 443.64688L312.92188 443.42813Q313.14062 442.42813 313.60938 441.81876Q314.09375 441.20938 315.0 440.88126Q315.92188 440.55313 317.14062 440.55313Q318.32812 440.55313 319.07812 440.83438Q319.82812 441.11563 320.17188 441.55313Q320.53125 441.975 320.67188 442.61563Q320.75 443.02188 320.75 444.08438L320.75 446.19376Q320.75 448.39688 320.84375 448.99063Q320.95312 449.56876 321.25 450.1L319.59375 450.1Q319.34375 449.6 319.28125 448.94376ZM319.14062 445.4125Q318.28125 445.77188 316.5625 446.00626Q315.59375 446.14688 315.1875 446.33438Q314.78125 446.50626 314.5625 446.85Q314.34375 447.17813 314.34375 447.6Q314.34375 448.225 314.8125 448.64688Q315.29688 449.06876 316.21875 449.06876Q317.14062 449.06876 317.84375 448.67813Q318.5625 448.27188 318.89062 447.58438Q319.14062 447.0375 319.14062 445.99063L319.14062 445.4125ZM328.20312 439.0375L328.20312 437.20938L329.78125 437.20938L329.78125 439.0375L328.20312 439.0375ZM328.20312 450.1L328.20312 440.77188L329.78125 440.77188L329.78125 450.1L328.20312 450.1ZM332.1875 450.1L332.1875 440.77188L333.60938 440.77188L333.60938 442.1Q334.64062 440.55313 336.57812 440.55313Q337.42188 440.55313 338.125 440.86563Q338.84375 441.1625 339.1875 441.6625Q339.54688 442.14688 339.6875 442.81876Q339.76562 443.25626 339.76562 444.36563L339.76562 450.1L338.1875 450.1L338.1875 444.42813Q338.1875 443.45938 338.0 442.975Q337.82812 442.49063 337.34375 442.20938Q336.875 441.92813 336.25 441.92813Q335.23438 441.92813 334.5 442.56876Q333.76562 443.20938 333.76562 445.00626L333.76562 450.1L332.1875 450.1ZM347.20312 450.1L347.20312 437.20938L348.78125 437.20938L348.78125 444.56876L352.51562 440.77188L354.5625 440.77188L351.0 444.225L354.9375 450.1L352.98438 450.1L349.89062 445.33438L348.78125 446.39688L348.78125 450.1L347.20312 450.1ZM356.1875 450.1L356.1875 440.77188L357.60938 440.77188L357.60938 442.06876Q358.04688 441.39688 358.76562 440.975Q359.5 440.55313 360.4375 440.55313Q361.46875 440.55313 362.125 440.99063Q362.79688 441.4125 363.0625 442.19376Q364.17188 440.55313 365.95312 440.55313Q367.34375 440.55313 368.07812 441.33438Q368.82812 442.1 368.82812 443.69376L368.82812 450.1L367.26562 450.1L367.26562 444.225Q367.26562 443.27188 367.10938 442.85Q366.95312 442.42813 366.54688 442.17813Q366.14062 441.92813 365.59375 441.92813Q364.60938 441.92813 363.95312 442.58438Q363.3125 443.24063 363.3125 444.67813L363.3125 450.1L361.73438 450.1L361.73438 444.0375Q361.73438 442.975 361.34375 442.45938Q360.95312 441.92813 360.07812 441.92813Q359.40625 441.92813 358.84375 442.2875Q358.28125 442.63126 358.01562 443.30313Q357.76562 443.975 357.76562 445.25626L357.76562 450.1L356.1875 450.1ZM369.21875 443.6625Q369.26562 443.1625 369.64062 442.6625Q370.1875 441.89688 371.45312 440.99063Q372.71875 440.06876 372.95312 439.80313Q373.28125 439.44376 373.28125 439.05313Q373.28125 438.63126 372.96875 438.36563Q372.67188 438.1 372.0625 438.1Q371.48438 438.1 371.20312 438.30313Q370.92188 438.50626 370.73438 439.1L369.40625 438.95938Q369.65625 437.975 370.28125 437.52188Q370.92188 437.05313 372.09375 437.05313Q373.42188 437.05313 374.03125 437.58438Q374.65625 438.1 374.65625 438.83438Q374.65625 439.58438 374.14062 440.24063Q373.75 440.725 372.34375 441.74063Q371.60938 442.27188 371.29688 442.6L374.70312 442.6L374.70312 443.6625L369.21875 443.6625Z" fill-rule="nonzero"/><path fill="#000000" d="M40.900005 332.7948L29.54063 332.7948L29.54063 337.0448L28.00938 337.0448L28.00938 326.82605L29.54063 326.82605L29.54063 331.09167L40.900005 331.09167L40.900005 332.7948ZM36.22813 324.87292Q33.63438 324.87292 32.38438 323.4198Q31.35313 322.21667 31.35313 320.49792Q31.35313 318.56042 32.618755 317.34167Q33.88438 316.12292 36.10313 316.12292Q37.900005 316.12292 38.931255 316.6698Q39.962505 317.20105 40.54063 318.2323Q41.118755 319.26355 41.118755 320.49792Q41.118755 322.45105 39.868755 323.6698Q38.60313 324.87292 36.22813 324.87292ZM36.22813 323.24792Q38.025005 323.24792 38.91563 322.46667Q39.806255 321.68542 39.806255 320.49792Q39.806255 319.31042 38.91563 318.52917Q38.00938 317.74792 36.181255 317.74792Q34.44688 317.74792 33.556255 318.5448Q32.66563 319.32605 32.66563 320.49792Q32.66563 321.68542 33.556255 322.46667Q34.44688 323.24792 36.22813 323.24792ZM39.47813 310.82605L40.88438 310.59167Q41.025005 311.26355 41.025005 311.7948Q41.025005 312.65417 40.75938 313.13855Q40.47813 313.6073 40.04063 313.7948Q39.587505 313.9823 38.16563 313.9823L32.79063 313.9823L32.79063 315.15417L31.57188 315.15417L31.57188 313.9823L29.25938 313.9823L28.306255 312.4198L31.57188 312.4198L31.57188 310.82605L32.79063 310.82605L32.79063 312.4198L38.25938 312.4198Q38.931255 312.4198 39.13438 312.34167Q39.32188 312.24792 39.431255 312.06042Q39.54063 311.87292 39.54063 311.51355Q39.54063 311.26355 39.47813 310.82605ZM39.743755 303.18542Q40.493755 304.06042 40.806255 304.88855Q41.118755 305.70105 41.118755 306.62292Q41.118755 308.1698 40.368755 308.99792Q39.60313 309.81042 38.431255 309.81042Q37.75938 309.81042 37.19688 309.49792Q36.618755 309.18542 36.275005 308.68542Q35.931255 308.18542 35.75938 307.5448Q35.63438 307.07605 35.525005 306.13855Q35.29063 304.2323 34.97813 303.32605Q34.650005 303.31042 34.556255 303.31042Q33.60313 303.31042 33.19688 303.76355Q32.66563 304.37292 32.66563 305.56042Q32.66563 306.68542 33.056255 307.21667Q33.44688 307.74792 34.44688 307.99792L34.22813 309.5448Q33.22813 309.32605 32.618755 308.8573Q32.00938 308.37292 31.681255 307.46667Q31.35313 306.5448 31.35313 305.32605Q31.35313 304.13855 31.63438 303.38855Q31.91563 302.63855 32.35313 302.2948Q32.775005 301.93542 33.41563 301.7948Q33.82188 301.71667 34.88438 301.71667L36.993755 301.71667Q39.19688 301.71667 39.79063 301.62292Q40.368755 301.51355 40.900005 301.21667L40.900005 302.87292Q40.400005 303.12292 39.743755 303.18542ZM36.212505 303.32605Q36.57188 304.18542 36.806255 305.90417Q36.94688 306.87292 37.13438 307.27917Q37.306255 307.68542 37.650005 307.90417Q37.97813 308.12292 38.400005 308.12292Q39.025005 308.12292 39.44688 307.65417Q39.868755 307.1698 39.868755 306.24792Q39.868755 305.32605 39.47813 304.62292Q39.07188 303.90417 38.38438 303.57605Q37.837505 303.32605 36.79063 303.32605L36.212505 303.32605ZM40.900005 299.31042L28.00938 299.31042L28.00938 297.7323L40.900005 297.7323L40.900005 299.31042ZM40.900005 290.07605L28.00938 290.07605L28.00938 285.21667Q28.00938 283.93542 28.13438 283.26355Q28.29063 282.31042 28.743755 281.6698Q29.181255 281.02917 29.993755 280.63855Q30.79063 280.24792 31.743755 280.24792Q33.38438 280.24792 34.525005 281.2948Q35.66563 282.34167 35.66563 285.06042L35.66563 288.37292L40.900005 288.37292L40.900005 290.07605ZM34.13438 288.37292L34.13438 285.0448Q34.13438 283.38855 33.525005 282.70105Q32.91563 281.99792 31.79063 281.99792Q30.97813 281.99792 30.41563 282.40417Q29.837505 282.81042 29.650005 283.4823Q29.54063 283.9198 29.54063 285.07605L29.54063 288.37292L34.13438 288.37292ZM36.22813 278.87292Q33.63438 278.87292 32.38438 277.4198Q31.35313 276.21667 31.35313 274.49792Q31.35313 272.56042 32.618755 271.34167Q33.88438 270.12292 36.10313 270.12292Q37.900005 270.12292 38.931255 270.6698Q39.962505 271.20105 40.54063 272.2323Q41.118755 273.26355 41.118755 274.49792Q41.118755 276.45105 39.868755 277.6698Q38.60313 278.87292 36.22813 278.87292ZM36.22813 277.24792Q38.025005 277.24792 38.91563 276.46667Q39.806255 275.68542 39.806255 274.49792Q39.806255 273.31042 38.91563 272.52917Q38.00938 271.74792 36.181255 271.74792Q34.44688 271.74792 33.556255 272.5448Q32.66563 273.32605 32.66563 274.49792Q32.66563 275.68542 33.556255 276.46667Q34.44688 277.24792 36.22813 277.24792ZM44.47813 268.27917L31.57188 268.27917L31.57188 266.84167L32.775005 266.84167Q32.07188 266.32605 31.712505 265.68542Q31.35313 265.0448 31.35313 264.13855Q31.35313 262.93542 31.97813 262.02917Q32.587505 261.1073 33.712505 260.63855Q34.82188 260.1698 36.16563 260.1698Q37.587505 260.1698 38.743755 260.68542Q39.88438 261.20105 40.50938 262.18542Q41.118755 263.1698 41.118755 264.24792Q41.118755 265.02917 40.79063 265.6698Q40.44688 266.2948 39.931255 266.70105L44.47813 266.70105L44.47813 268.27917ZM36.29063 266.84167Q38.087505 266.84167 38.94688 266.12292Q39.806255 265.38855 39.806255 264.3573Q39.806255 263.2948 38.91563 262.5448Q38.025005 261.7948 36.150005 261.7948Q34.368755 261.7948 33.47813 262.52917Q32.587505 263.26355 32.587505 264.27917Q32.587505 265.2948 33.54063 266.07605Q34.47813 266.84167 36.29063 266.84167ZM40.900005 252.1698L39.525005 252.1698Q41.118755 253.24792 41.118755 255.12292Q41.118755 255.95105 40.806255 256.6698Q40.47813 257.38855 40.00938 257.7323Q39.525005 258.07605 38.82188 258.21667Q38.35313 258.31042 37.35313 258.31042L31.57188 258.31042L31.57188 256.7323L36.743755 256.7323Q37.97813 256.7323 38.41563 256.63855Q39.04063 256.4823 39.400005 255.99792Q39.743755 255.51355 39.743755 254.81042Q39.743755 254.09167 39.38438 253.46667Q39.025005 252.84167 38.400005 252.59167Q37.75938 252.32605 36.57188 252.32605L31.57188 252.32605L31.57188 250.74792L40.900005 250.74792L40.900005 252.1698ZM40.900005 248.31042L28.00938 248.31042L28.00938 246.7323L40.900005 246.7323L40.900005 248.31042ZM39.743755 238.18542Q40.493755 239.06042 40.806255 239.88855Q41.118755 240.70105 41.118755 241.62292Q41.118755 243.1698 40.368755 243.99792Q39.60313 244.81042 38.431255 244.81042Q37.75938 244.81042 37.19688 244.49792Q36.618755 244.18542 36.275005 243.68542Q35.931255 243.18542 35.75938 242.5448Q35.63438 242.07605 35.525005 241.13855Q35.29063 239.2323 34.97813 238.32605Q34.650005 238.31042 34.556255 238.31042Q33.60313 238.31042 33.19688 238.76355Q32.66563 239.37292 32.66563 240.56042Q32.66563 241.68542 33.056255 242.21667Q33.44688 242.74792 34.44688 242.99792L34.22813 244.5448Q33.22813 244.32605 32.618755 243.8573Q32.00938 243.37292 31.681255 242.46667Q31.35313 241.5448 31.35313 240.32605Q31.35313 239.13855 31.63438 238.38855Q31.91563 237.63855 32.35313 237.2948Q32.775005 236.93542 33.41563 236.7948Q33.82188 236.71667 34.88438 236.71667L36.993755 236.71667Q39.19688 236.71667 39.79063 236.62292Q40.368755 236.51355 40.900005 236.21667L40.900005 237.87292Q40.400005 238.12292 39.743755 238.18542ZM36.212505 238.32605Q36.57188 239.18542 36.806255 240.90417Q36.94688 241.87292 37.13438 242.27917Q37.306255 242.68542 37.650005 242.90417Q37.97813 243.12292 38.400005 243.12292Q39.025005 243.12292 39.44688 242.65417Q39.868755 242.1698 39.868755 241.24792Q39.868755 240.32605 39.47813 239.62292Q39.07188 238.90417 38.38438 238.57605Q37.837505 238.32605 36.79063 238.32605L36.212505 238.32605ZM39.47813 230.82605L40.88438 230.59167Q41.025005 231.26355 41.025005 231.7948Q41.025005 232.65417 40.75938 233.13855Q40.47813 233.6073 40.04063 233.7948Q39.587505 233.9823 38.16563 233.9823L32.79063 233.9823L32.79063 235.15417L31.57188 235.15417L31.57188 233.9823L29.25938 233.9823L28.306255 232.4198L31.57188 232.4198L31.57188 230.82605L32.79063 230.82605L32.79063 232.4198L38.25938 232.4198Q38.931255 232.4198 39.13438 232.34167Q39.32188 232.24792 39.431255 232.06042Q39.54063 231.87292 39.54063 231.51355Q39.54063 231.26355 39.47813 230.82605ZM29.837505 229.26355L28.00938 229.26355L28.00938 227.68542L29.837505 227.68542L29.837505 229.26355ZM40.900005 229.26355L31.57188 229.26355L31.57188 227.68542L40.900005 227.68542L40.900005 229.26355ZM36.22813 225.87292Q33.63438 225.87292 32.38438 224.4198Q31.35313 223.21667 31.35313 221.49792Q31.35313 219.56042 32.618755 218.34167Q33.88438 217.12292 36.10313 217.12292Q37.900005 217.12292 38.931255 217.6698Q39.962505 218.20105 40.54063 219.2323Q41.118755 220.26355 41.118755 221.49792Q41.118755 223.45105 39.868755 224.6698Q38.60313 225.87292 36.22813 225.87292ZM36.22813 224.24792Q38.025005 224.24792 38.91563 223.46667Q39.806255 222.68542 39.806255 221.49792Q39.806255 220.31042 38.91563 219.52917Q38.00938 218.74792 36.181255 218.74792Q34.44688 218.74792 33.556255 219.5448Q32.66563 220.32605 32.66563 221.49792Q32.66563 222.68542 33.556255 223.46667Q34.44688 224.24792 36.22813 224.24792ZM40.900005 215.27917L31.57188 215.27917L31.57188 213.8573L32.900005 213.8573Q31.35313 212.82605 31.35313 210.88855Q31.35313 210.0448 31.66563 209.34167Q31.962505 208.62292 32.462505 208.27917Q32.94688 207.9198 33.618755 207.77917Q34.056255 207.70105 35.16563 207.70105L40.900005 207.70105L40.900005 209.27917L35.22813 209.27917Q34.25938 209.27917 33.775005 209.46667Q33.29063 209.63855 33.00938 210.12292Q32.72813 210.59167 32.72813 211.21667Q32.72813 212.2323 33.368755 212.96667Q34.00938 213.70105 35.806255 213.70105L40.900005 213.70105L40.900005 215.27917ZM29.837505 200.26355L28.00938 200.26355L28.00938 198.68542L29.837505 198.68542L29.837505 200.26355ZM40.900005 200.26355L31.57188 200.26355L31.57188 198.68542L40.900005 198.68542L40.900005 200.26355ZM40.900005 196.27917L31.57188 196.27917L31.57188 194.8573L32.900005 194.8573Q31.35313 193.82605 31.35313 191.88855Q31.35313 191.0448 31.66563 190.34167Q31.962505 189.62292 32.462505 189.27917Q32.94688 188.9198 33.618755 188.77917Q34.056255 188.70105 35.16563 188.70105L40.900005 188.70105L40.900005 190.27917L35.22813 190.27917Q34.25938 190.27917 33.775005 190.46667Q33.29063 190.63855 33.00938 191.12292Q32.72813 191.59167 32.72813 192.21667Q32.72813 193.2323 33.368755 193.96667Q34.00938 194.70105 35.806255 194.70105L40.900005 194.70105L40.900005 196.27917ZM40.900005 181.27917L31.57188 181.27917L31.57188 179.8573L32.868755 179.8573Q32.19688 179.4198 31.775005 178.70105Q31.35313 177.96667 31.35313 177.02917Q31.35313 175.99792 31.79063 175.34167Q32.212505 174.6698 32.993755 174.40417Q31.35313 173.2948 31.35313 171.51355Q31.35313 170.12292 32.13438 169.38855Q32.900005 168.63855 34.493755 168.63855L40.900005 168.63855L40.900005 170.20105L35.025005 170.20105Q34.07188 170.20105 33.650005 170.3573Q33.22813 170.51355 32.97813 170.9198Q32.72813 171.32605 32.72813 171.87292Q32.72813 172.8573 33.38438 173.51355Q34.04063 174.15417 35.47813 174.15417L40.900005 174.15417L40.900005 175.7323L34.837505 175.7323Q33.775005 175.7323 33.25938 176.12292Q32.72813 176.51355 32.72813 177.38855Q32.72813 178.06042 33.087505 178.62292Q33.431255 179.18542 34.10313 179.45105Q34.775005 179.70105 36.056255 179.70105L40.900005 179.70105L40.900005 181.27917ZM29.837505 167.26355L28.00938 167.26355L28.00938 165.68542L29.837505 165.68542L29.837505 167.26355ZM40.900005 167.26355L31.57188 167.26355L31.57188 165.68542L40.900005 165.68542L40.900005 167.26355ZM40.900005 163.31042L28.00938 163.31042L28.00938 161.7323L40.900005 161.7323L40.900005 163.31042ZM40.900005 159.31042L28.00938 159.31042L28.00938 157.7323L40.900005 157.7323L40.900005 159.31042ZM29.837505 155.26355L28.00938 155.26355L28.00938 153.68542L29.837505 153.68542L29.837505 155.26355ZM40.900005 155.26355L31.57188 155.26355L31.57188 153.68542L40.900005 153.68542L40.900005 155.26355ZM36.22813 151.87292Q33.63438 151.87292 32.38438 150.4198Q31.35313 149.21667 31.35313 147.49792Q31.35313 145.56042 32.618755 144.34167Q33.88438 143.12292 36.10313 143.12292Q37.900005 143.12292 38.931255 143.6698Q39.962505 144.20105 40.54063 145.2323Q41.118755 146.26355 41.118755 147.49792Q41.118755 149.45105 39.868755 150.6698Q38.60313 151.87292 36.22813 151.87292ZM36.22813 150.24792Q38.025005 150.24792 38.91563 149.46667Q39.806255 148.68542 39.806255 147.49792Q39.806255 146.31042 38.91563 145.52917Q38.00938 144.74792 36.181255 144.74792Q34.44688 144.74792 33.556255 145.5448Q32.66563 146.32605 32.66563 147.49792Q32.66563 148.68542 33.556255 149.46667Q34.44688 150.24792 36.22813 150.24792ZM40.900005 141.27917L31.57188 141.27917L31.57188 139.8573L32.900005 139.8573Q31.35313 138.82605 31.35313 136.88855Q31.35313 136.0448 31.66563 135.34167Q31.962505 134.62292 32.462505 134.27917Q32.94688 133.9198 33.618755 133.77917Q34.056255 133.70105 35.16563 133.70105L40.900005 133.70105L40.900005 135.27917L35.22813 135.27917Q34.25938 135.27917 33.775005 135.46667Q33.29063 135.63855 33.00938 136.12292Q32.72813 136.59167 32.72813 137.21667Q32.72813 138.2323 33.368755 138.96667Q34.00938 139.70105 35.806255 139.70105L40.900005 139.70105L40.900005 141.27917Z" fill-rule="nonzero"/><path fill="#000000" d="M92.65 376.24063Q92.65 373.95938 93.11875 372.56876Q93.5875 371.17813 94.50938 370.42813Q95.44688 369.6625 96.85313 369.6625Q97.88438 369.6625 98.66563 370.08438Q99.44688 370.49063 99.94688 371.2875Q100.4625 372.06876 100.75938 373.20938Q101.05625 374.33438 101.05625 376.24063Q101.05625 378.50626 100.5875 379.9125Q100.11875 381.30313 99.18125 382.06876Q98.25938 382.81876 96.85313 382.81876Q94.97813 382.81876 93.91563 381.49063Q92.65 379.88126 92.65 376.24063ZM94.275 376.24063Q94.275 379.4125 95.00938 380.475Q95.75938 381.52188 96.85313 381.52188Q97.93125 381.52188 98.68125 380.475Q99.43125 379.4125 99.43125 376.24063Q99.43125 373.06876 98.68125 372.02188Q97.93125 370.975 96.8375 370.975Q95.74375 370.975 95.0875 371.89688Q94.275 373.06876 94.275 376.24063Z" fill-rule="nonzero"/><path fill="#000000" d="M92.65 303.78333L94.30625 303.6427Q94.49375 304.86145 95.16563 305.47083Q95.8375 306.0802 96.79063 306.0802Q97.93125 306.0802 98.7125 305.22083Q99.50938 304.36145 99.50938 302.92395Q99.50938 301.5802 98.74375 300.79895Q97.99375 300.0177 96.75938 300.0177Q95.99375 300.0177 95.36875 300.36145Q94.75938 300.7052 94.41563 301.2677L92.93125 301.06458L94.18125 294.4552L100.5875 294.4552L100.5875 295.9552L95.44688 295.9552L94.74375 299.42395Q95.91563 298.61145 97.18125 298.61145Q98.86875 298.61145 100.025 299.78333Q101.19688 300.9552 101.19688 302.78333Q101.19688 304.53333 100.16563 305.81458Q98.93125 307.37708 96.79063 307.37708Q95.025 307.37708 93.91563 306.3927Q92.80625 305.40833 92.65 303.78333Z" fill-rule="nonzero"/><path fill="#000000" d="M88.60313 231.71666L87.025 231.71666L87.025 221.63853Q86.44688 222.18541 85.525 222.73228Q84.60313 223.26353 83.85313 223.54478L83.85313 222.01353Q85.18125 221.38853 86.18125 220.49791Q87.18125 219.60728 87.5875 218.77916L88.60313 218.77916L88.60313 231.71666ZM92.65 225.35728Q92.65 223.07603 93.11875 221.68541Q93.5875 220.29478 94.50938 219.54478Q95.44688 218.77916 96.85313 218.77916Q97.88438 218.77916 98.66563 219.20103Q99.44688 219.60728 99.94688 220.40416Q100.4625 221.18541 100.75938 222.32603Q101.05625 223.45103 101.05625 225.35728Q101.05625 227.62291 100.5875 229.02916Q100.11875 230.41978 99.18125 231.18541Q98.25938 231.93541 96.85313 231.93541Q94.97813 231.93541 93.91563 230.60728Q92.65 228.99791 92.65 225.35728ZM94.275 225.35728Q94.275 228.52916 95.00938 229.59166Q95.75938 230.63853 96.85313 230.63853Q97.93125 230.63853 98.68125 229.59166Q99.43125 228.52916 99.43125 225.35728Q99.43125 222.18541 98.68125 221.13853Q97.93125 220.09166 96.8375 220.09166Q95.74375 220.09166 95.0875 221.01353Q94.275 222.18541 94.275 225.35728Z" fill-rule="nonzero"/><path fill="#000000" d="M88.60313 156.275L87.025 156.275L87.025 146.19687Q86.44688 146.74374 85.525 147.29062Q84.60313 147.82187 83.85313 148.10312L83.85313 146.57187Q85.18125 145.94687 86.18125 145.05624Q87.18125 144.16562 87.5875 143.3375L88.60313 143.3375L88.60313 156.275ZM92.65 152.9L94.30625 152.75937Q94.49375 153.97812 95.16563 154.5875Q95.8375 155.19687 96.79063 155.19687Q97.93125 155.19687 98.7125 154.3375Q99.50938 153.47812 99.50938 152.04062Q99.50938 150.69687 98.74375 149.91562Q97.99375 149.13437 96.75938 149.13437Q95.99375 149.13437 95.36875 149.47812Q94.75938 149.82187 94.41563 150.38437L92.93125 150.18124L94.18125 143.57187L100.5875 143.57187L100.5875 145.07187L95.44688 145.07187L94.74375 148.54062Q95.91563 147.72812 97.18125 147.72812Q98.86875 147.72812 100.025 148.9Q101.19688 150.07187 101.19688 151.9Q101.19688 153.65 100.16563 154.93124Q98.93125 156.49374 96.79063 156.49374Q95.025 156.49374 93.91563 155.50937Q92.80625 154.525 92.65 152.9Z" fill-rule="nonzero"/><path fill="#000000" d="M90.9625 79.31771L90.9625 80.833336L82.44688 80.833336Q82.43125 80.25521 82.63438 79.739586Q82.9625 78.864586 83.66563 78.020836Q84.38438 77.177086 85.74375 76.06771Q87.8375 74.34896 88.57188 73.34896Q89.32188 72.333336 89.32188 71.44271Q89.32188 70.489586 88.65 69.84896Q87.97813 69.208336 86.9 69.208336Q85.74375 69.208336 85.05625 69.895836Q84.38438 70.583336 84.36875 71.78646L82.74375 71.614586Q82.91563 69.802086 83.99375 68.84896Q85.0875 67.895836 86.93125 67.895836Q88.775 67.895836 89.85313 68.927086Q90.94688 69.958336 90.94688 71.47396Q90.94688 72.239586 90.61875 72.989586Q90.30625 73.739586 89.57188 74.56771Q88.8375 75.395836 87.13438 76.833336Q85.7125 78.03646 85.30625 78.458336Q84.9 78.88021 84.65 79.31771L90.9625 79.31771ZM92.65 74.47396Q92.65 72.19271 93.11875 70.802086Q93.5875 69.41146 94.50938 68.66146Q95.44688 67.895836 96.85313 67.895836Q97.88438 67.895836 98.66563 68.31771Q99.44688 68.72396 99.94688 69.520836Q100.4625 70.302086 100.75938 71.44271Q101.05625 72.56771 101.05625 74.47396Q101.05625 76.739586 100.5875 78.145836Q100.11875 79.53646 99.18125 80.302086Q98.25938 81.052086 96.85313 81.052086Q94.97813 81.052086 93.91563 79.72396Q92.65 78.114586 92.65 74.47396ZM94.275 74.47396Q94.275 77.645836 95.00938 78.708336Q95.75938 79.75521 96.85313 79.75521Q97.93125 79.75521 98.68125 78.708336Q99.43125 77.645836 99.43125 74.47396Q99.43125 71.302086 98.68125 70.25521Q97.93125 69.208336 96.8375 69.208336Q95.74375 69.208336 95.0875 70.13021Q94.275 71.302086 94.275 74.47396Z" fill-rule="nonzero"/><path fill="#000000" d="M110.89637 395.74063Q110.89637 393.45938 111.36512 392.06876Q111.83387 390.67813 112.755745 389.92813Q113.693245 389.1625 115.099495 389.1625Q116.130745 389.1625 116.911995 389.58438Q117.693245 389.99063 118.193245 390.7875Q118.70887 391.56876 119.005745 392.70938Q119.30262 393.83438 119.30262 395.74063Q119.30262 398.00626 118.83387 399.4125Q118.36512 400.80313 117.42762 401.56876Q116.505745 402.31876 115.099495 402.31876Q113.224495 402.31876 112.161995 400.99063Q110.89637 399.38126 110.89637 395.74063ZM112.52137 395.74063Q112.52137 398.9125 113.255745 399.975Q114.005745 401.02188 115.099495 401.02188Q116.17762 401.02188 116.92762 399.975Q117.67762 398.9125 117.67762 395.74063Q117.67762 392.56876 116.92762 391.52188Q116.17762 390.475 115.08387 390.475Q113.99012 390.475 113.33387 391.39688Q112.52137 392.56876 112.52137 395.74063Z" fill-rule="nonzero"/><path fill="#000000" d="M220.30263 400.58438L220.30263 402.1L211.787 402.1Q211.77138 401.52188 211.9745 401.00626Q212.30263 400.13126 213.00575 399.2875Q213.7245 398.44376 215.08388 397.33438Q217.17763 395.61563 217.912 394.61563Q218.662 393.6 218.662 392.70938Q218.662 391.75626 217.99013 391.11563Q217.31825 390.475 216.24013 390.475Q215.08388 390.475 214.39638 391.1625Q213.7245 391.85 213.70888 393.05313L212.08388 392.88126Q212.25575 391.06876 213.33388 390.11563Q214.42763 389.1625 216.27138 389.1625Q218.11513 389.1625 219.19325 390.19376Q220.287 391.225 220.287 392.74063Q220.287 393.50626 219.95888 394.25626Q219.64638 395.00626 218.912 395.83438Q218.17763 396.6625 216.4745 398.1Q215.05263 399.30313 214.64638 399.725Q214.24013 400.14688 213.99013 400.58438L220.30263 400.58438ZM221.99013 395.74063Q221.99013 393.45938 222.45888 392.06876Q222.92763 390.67813 223.8495 389.92813Q224.787 389.1625 226.19325 389.1625Q227.2245 389.1625 228.00575 389.58438Q228.787 389.99063 229.287 390.7875Q229.80263 391.56876 230.0995 392.70938Q230.39638 393.83438 230.39638 395.74063Q230.39638 398.00626 229.92763 399.4125Q229.45888 400.80313 228.52138 401.56876Q227.5995 402.31876 226.19325 402.31876Q224.31825 402.31876 223.25575 400.99063Q221.99013 399.38126 221.99013 395.74063ZM223.61513 395.74063Q223.61513 398.9125 224.3495 399.975Q225.0995 401.02188 226.19325 401.02188Q227.27138 401.02188 228.02138 399.975Q228.77138 398.9125 228.77138 395.74063Q228.77138 392.56876 228.02138 391.52188Q227.27138 390.475 226.17763 390.475Q225.08388 390.475 224.42763 391.39688Q223.61513 392.56876 223.61513 395.74063ZM231.99013 395.74063Q231.99013 393.45938 232.45888 392.06876Q232.92763 390.67813 233.8495 389.92813Q234.787 389.1625 236.19325 389.1625Q237.2245 389.1625 238.00575 389.58438Q238.787 389.99063 239.287 390.7875Q239.80263 391.56876 240.0995 392.70938Q240.39638 393.83438 240.39638 395.74063Q240.39638 398.00626 239.92763 399.4125Q239.45888 400.80313 238.52138 401.56876Q237.5995 402.31876 236.19325 402.31876Q234.31825 402.31876 233.25575 400.99063Q231.99013 399.38126 231.99013 395.74063ZM233.61513 395.74063Q233.61513 398.9125 234.3495 399.975Q235.0995 401.02188 236.19325 401.02188Q237.27138 401.02188 238.02138 399.975Q238.77138 398.9125 238.77138 395.74063Q238.77138 392.56876 238.02138 391.52188Q237.27138 390.475 236.17763 390.475Q235.08388 390.475 234.42763 391.39688Q233.61513 392.56876 233.61513 395.74063ZM241.99013 395.74063Q241.99013 393.45938 242.45888 392.06876Q242.92763 390.67813 243.8495 389.92813Q244.787 389.1625 246.19325 389.1625Q247.2245 389.1625 248.00575 389.58438Q248.787 389.99063 249.287 390.7875Q249.80263 391.56876 250.0995 392.70938Q250.39638 393.83438 250.39638 395.74063Q250.39638 398.00626 249.92763 399.4125Q249.45888 400.80313 248.52138 401.56876Q247.5995 402.31876 246.19325 402.31876Q244.31825 402.31876 243.25575 400.99063Q241.99013 399.38126 241.99013 395.74063ZM243.61513 395.74063Q243.61513 398.9125 244.3495 399.975Q245.0995 401.02188 246.19325 401.02188Q247.27138 401.02188 248.02138 399.975Q248.77138 398.9125 248.77138 395.74063Q248.77138 392.56876 248.02138 391.52188Q247.27138 390.475 246.17763 390.475Q245.08388 390.475 244.42763 391.39688Q243.61513 392.56876 243.61513 395.74063ZM251.99013 395.74063Q251.99013 393.45938 252.45888 392.06876Q252.92763 390.67813 253.8495 389.92813Q254.787 389.1625 256.19324 389.1625Q257.2245 389.1625 258.00574 389.58438Q258.787 389.99063 259.287 390.7875Q259.8026 391.56876 260.0995 392.70938Q260.39636 393.83438 260.39636 395.74063Q260.39636 398.00626 259.9276 399.4125Q259.45886 400.80313 258.52136 401.56876Q257.5995 402.31876 256.19324 402.31876Q254.31825 402.31876 253.25575 400.99063Q251.99013 399.38126 251.99013 395.74063ZM253.61513 395.74063Q253.61513 398.9125 254.3495 399.975Q255.0995 401.02188 256.19324 401.02188Q257.27136 401.02188 258.02136 399.975Q258.77136 398.9125 258.77136 395.74063Q258.77136 392.56876 258.02136 391.52188Q257.27136 390.475 256.1776 390.475Q255.08388 390.475 254.42763 391.39688Q253.61513 392.56876 253.61513 395.74063Z" fill-rule="nonzero"/><path fill="#000000" d="M338.1464 402.1L338.1464 399.02188L332.56827 399.02188L332.56827 397.56876L338.44327 389.20938L339.74014 389.20938L339.74014 397.56876L341.47452 397.56876L341.47452 399.02188L339.74014 399.02188L339.74014 402.1L338.1464 402.1ZM338.1464 397.56876L338.1464 391.75626L334.11514 397.56876L338.1464 397.56876ZM343.0839 395.74063Q343.0839 393.45938 343.55264 392.06876Q344.0214 390.67813 344.94327 389.92813Q345.88077 389.1625 347.28702 389.1625Q348.31827 389.1625 349.09952 389.58438Q349.88077 389.99063 350.38077 390.7875Q350.8964 391.56876 351.19327 392.70938Q351.49014 393.83438 351.49014 395.74063Q351.49014 398.00626 351.0214 399.4125Q350.55264 400.80313 349.61514 401.56876Q348.69327 402.31876 347.28702 402.31876Q345.41202 402.31876 344.34952 400.99063Q343.0839 399.38126 343.0839 395.74063ZM344.7089 395.74063Q344.7089 398.9125 345.44327 399.975Q346.19327 401.02188 347.28702 401.02188Q348.36514 401.02188 349.11514 399.975Q349.86514 398.9125 349.86514 395.74063Q349.86514 392.56876 349.11514 391.52188Q348.36514 390.475 347.2714 390.475Q346.17764 390.475 345.5214 391.39688Q344.7089 392.56876 344.7089 395.74063ZM353.0839 395.74063Q353.0839 393.45938 353.55264 392.06876Q354.0214 390.67813 354.94327 389.92813Q355.88077 389.1625 357.28702 389.1625Q358.31827 389.1625 359.09952 389.58438Q359.88077 389.99063 360.38077 390.7875Q360.8964 391.56876 361.19327 392.70938Q361.49014 393.83438 361.49014 395.74063Q361.49014 398.00626 361.0214 399.4125Q360.55264 400.80313 359.61514 401.56876Q358.69327 402.31876 357.28702 402.31876Q355.41202 402.31876 354.34952 400.99063Q353.0839 399.38126 353.0839 395.74063ZM354.7089 395.74063Q354.7089 398.9125 355.44327 399.975Q356.19327 401.02188 357.28702 401.02188Q358.36514 401.02188 359.11514 399.975Q359.86514 398.9125 359.86514 395.74063Q359.86514 392.56876 359.11514 391.52188Q358.36514 390.475 357.2714 390.475Q356.17764 390.475 355.5214 391.39688Q354.7089 392.56876 354.7089 395.74063ZM363.0839 395.74063Q363.0839 393.45938 363.55264 392.06876Q364.0214 390.67813 364.94327 389.92813Q365.88077 389.1625 367.28702 389.1625Q368.31827 389.1625 369.09952 389.58438Q369.88077 389.99063 370.38077 390.7875Q370.8964 391.56876 371.19327 392.70938Q371.49014 393.83438 371.49014 395.74063Q371.49014 398.00626 371.0214 399.4125Q370.55264 400.80313 369.61514 401.56876Q368.69327 402.31876 367.28702 402.31876Q365.41202 402.31876 364.34952 400.99063Q363.0839 399.38126 363.0839 395.74063ZM364.7089 395.74063Q364.7089 398.9125 365.44327 399.975Q366.19327 401.02188 367.28702 401.02188Q368.36514 401.02188 369.11514 399.975Q369.86514 398.9125 369.86514 395.74063Q369.86514 392.56876 369.11514 391.52188Q368.36514 390.475 367.2714 390.475Q366.17764 390.475 365.5214 391.39688Q364.7089 392.56876 364.7089 395.74063ZM373.0839 395.74063Q373.0839 393.45938 373.55264 392.06876Q374.0214 390.67813 374.94327 389.92813Q375.88077 389.1625 377.28702 389.1625Q378.31827 389.1625 379.09952 389.58438Q379.88077 389.99063 380.38077 390.7875Q380.8964 391.56876 381.19327 392.70938Q381.49014 393.83438 381.49014 395.74063Q381.49014 398.00626 381.0214 399.4125Q380.55264 400.80313 379.61514 401.56876Q378.69327 402.31876 377.28702 402.31876Q375.41202 402.31876 374.34952 400.99063Q373.0839 399.38126 373.0839 395.74063ZM374.7089 395.74063Q374.7089 398.9125 375.44327 399.975Q376.19327 401.02188 377.28702 401.02188Q378.36514 401.02188 379.11514 399.975Q379.86514 398.9125 379.86514 395.74063Q379.86514 392.56876 379.11514 391.52188Q378.36514 390.475 377.2714 390.475Q376.17764 390.475 375.5214 391.39688Q374.7089 392.56876 374.7089 395.74063Z" fill-rule="nonzero"/><path fill="#000000" d="M462.38077 392.36563L460.81827 392.49063Q460.59952 391.56876 460.2089 391.14688Q459.56827 390.45938 458.63077 390.45938Q457.88077 390.45938 457.30264 390.88126Q456.55264 391.42813 456.11514 392.475Q455.69327 393.52188 455.67764 395.45938Q456.25577 394.58438 457.06827 394.1625Q457.8964 393.74063 458.80264 393.74063Q460.3964 393.74063 461.50577 394.9125Q462.61514 396.06876 462.61514 397.9125Q462.61514 399.13126 462.0839 400.17813Q461.56827 401.20938 460.6464 401.77188Q459.74014 402.31876 458.5839 402.31876Q456.59952 402.31876 455.34952 400.86563Q454.09952 399.4125 454.09952 396.06876Q454.09952 392.33438 455.49014 390.63126Q456.69327 389.1625 458.72452 389.1625Q460.25577 389.1625 461.22452 390.02188Q462.19327 390.86563 462.38077 392.36563ZM455.92764 397.92813Q455.92764 398.74063 456.2714 399.49063Q456.61514 400.24063 457.24014 400.63126Q457.86514 401.02188 458.55264 401.02188Q459.55264 401.02188 460.2714 400.20938Q460.99014 399.39688 460.99014 398.00626Q460.99014 396.67813 460.2714 395.9125Q459.56827 395.13126 458.49014 395.13126Q457.41202 395.13126 456.66202 395.9125Q455.92764 396.67813 455.92764 397.92813ZM464.17764 395.74063Q464.17764 393.45938 464.6464 392.06876Q465.11514 390.67813 466.03702 389.92813Q466.97452 389.1625 468.38077 389.1625Q469.41202 389.1625 470.19327 389.58438Q470.97452 389.99063 471.47452 390.7875Q471.99014 391.56876 472.28702 392.70938Q472.5839 393.83438 472.5839 395.74063Q472.5839 398.00626 472.11514 399.4125Q471.6464 400.80313 470.7089 401.56876Q469.78702 402.31876 468.38077 402.31876Q466.50577 402.31876 465.44327 400.99063Q464.17764 399.38126 464.17764 395.74063ZM465.80264 395.74063Q465.80264 398.9125 466.53702 399.975Q467.28702 401.02188 468.38077 401.02188Q469.4589 401.02188 470.2089 399.975Q470.9589 398.9125 470.9589 395.74063Q470.9589 392.56876 470.2089 391.52188Q469.4589 390.475 468.36514 390.475Q467.2714 390.475 466.61514 391.39688Q465.80264 392.56876 465.80264 395.74063ZM474.17764 395.74063Q474.17764 393.45938 474.6464 392.06876Q475.11514 390.67813 476.03702 389.92813Q476.97452 389.1625 478.38077 389.1625Q479.41202 389.1625 480.19327 389.58438Q480.97452 389.99063 481.47452 390.7875Q481.99014 391.56876 482.28702 392.70938Q482.5839 393.83438 482.5839 395.74063Q482.5839 398.00626 482.11514 399.4125Q481.6464 400.80313 480.7089 401.56876Q479.78702 402.31876 478.38077 402.31876Q476.50577 402.31876 475.44327 400.99063Q474.17764 399.38126 474.17764 395.74063ZM475.80264 395.74063Q475.80264 398.9125 476.53702 399.975Q477.28702 401.02188 478.38077 401.02188Q479.4589 401.02188 480.2089 399.975Q480.9589 398.9125 480.9589 395.74063Q480.9589 392.56876 480.2089 391.52188Q479.4589 390.475 478.36514 390.475Q477.2714 390.475 476.61514 391.39688Q475.80264 392.56876 475.80264 395.74063ZM484.17764 395.74063Q484.17764 393.45938 484.6464 392.06876Q485.11514 390.67813 486.03702 389.92813Q486.97452 389.1625 488.38077 389.1625Q489.41202 389.1625 490.19327 389.58438Q490.97452 389.99063 491.47452 390.7875Q491.99014 391.56876 492.28702 392.70938Q492.5839 393.83438 492.5839 395.74063Q492.5839 398.00626 492.11514 399.4125Q491.6464 400.80313 490.7089 401.56876Q489.78702 402.31876 488.38077 402.31876Q486.50577 402.31876 485.44327 400.99063Q484.17764 399.38126 484.17764 395.74063ZM485.80264 395.74063Q485.80264 398.9125 486.53702 399.975Q487.28702 401.02188 488.38077 401.02188Q489.4589 401.02188 490.2089 399.975Q490.9589 398.9125 490.9589 395.74063Q490.9589 392.56876 490.2089 391.52188Q489.4589 390.475 488.36514 390.475Q487.2714 390.475 486.61514 391.39688Q485.80264 392.56876 485.80264 395.74063ZM494.17764 395.74063Q494.17764 393.45938 494.6464 392.06876Q495.11514 390.67813 496.03702 389.92813Q496.97452 389.1625 498.38077 389.1625Q499.41202 389.1625 500.19327 389.58438Q500.97452 389.99063 501.47452 390.7875Q501.99014 391.56876 502.28702 392.70938Q502.5839 393.83438 502.5839 395.74063Q502.5839 398.00626 502.11514 399.4125Q501.6464 400.80313 500.7089 401.56876Q499.78702 402.31876 498.38077 402.31876Q496.50577 402.31876 495.44327 400.99063Q494.17764 399.38126 494.17764 395.74063ZM495.80264 395.74063Q495.80264 398.9125 496.53702 399.975Q497.28702 401.02188 498.38077 401.02188Q499.4589 401.02188 500.2089 399.975Q500.9589 398.9125 500.9589 395.74063Q500.9589 392.56876 500.2089 391.52188Q499.4589 390.475 498.36514 390.475Q497.2714 390.475 496.61514 391.39688Q495.80264 392.56876 495.80264 395.74063Z" fill-rule="nonzero"/><path fill="#757575" d="M199.54688 42.9L199.54688 28.587502L204.9375 28.587502Q206.375 28.587502 207.125 28.712502Q208.17188 28.900002 208.89062 29.400002Q209.60938 29.884377 210.03125 30.775002Q210.46875 31.665627 210.46875 32.728127Q210.46875 34.55625 209.29688 35.821877Q208.14062 37.071877 205.10938 37.071877L201.4375 37.071877L201.4375 42.9L199.54688 42.9ZM201.4375 35.384377L205.14062 35.384377Q206.96875 35.384377 207.73438 34.7125Q208.51562 34.025 208.51562 32.775Q208.51562 31.884377 208.0625 31.243752Q207.60938 30.603127 206.875 30.400002Q206.39062 30.275002 205.09375 30.275002L201.4375 30.275002L201.4375 35.384377ZM211.67188 37.7125Q211.67188 34.8375 213.26562 33.446877Q214.60938 32.290627 216.53125 32.290627Q218.67188 32.290627 220.01562 33.696877Q221.375 35.103127 221.375 37.571877Q221.375 39.571877 220.78125 40.728127Q220.1875 41.86875 219.03125 42.509377Q217.89062 43.134377 216.53125 43.134377Q214.34375 43.134377 213.0 41.74375Q211.67188 40.3375 211.67188 37.7125ZM213.46875 37.7125Q213.46875 39.7125 214.32812 40.696877Q215.20312 41.68125 216.53125 41.68125Q217.84375 41.68125 218.70312 40.696877Q219.57812 39.696877 219.57812 37.65Q219.57812 35.728127 218.70312 34.74375Q217.82812 33.74375 216.53125 33.74375Q215.20312 33.74375 214.32812 34.74375Q213.46875 35.728127 213.46875 37.7125ZM223.3125 46.86875L223.3125 32.525L224.92188 32.525L224.92188 33.86875Q225.48438 33.0875 226.1875 32.696877Q226.90625 32.290627 227.92188 32.290627Q229.25 32.290627 230.26562 32.978127Q231.28125 33.665627 231.79688 34.915627Q232.32812 36.15 232.32812 37.634377Q232.32812 39.228127 231.75 40.509377Q231.1875 41.775 230.09375 42.4625Q229.0 43.134377 227.79688 43.134377Q226.92188 43.134377 226.21875 42.759377Q225.53125 42.384377 225.07812 41.821877L225.07812 46.86875L223.3125 46.86875ZM224.90625 37.775Q224.90625 39.775 225.71875 40.728127Q226.53125 41.68125 227.6875 41.68125Q228.85938 41.68125 229.6875 40.696877Q230.53125 39.7125 230.53125 37.61875Q230.53125 35.65 229.70312 34.665627Q228.89062 33.665627 227.76562 33.665627Q226.64062 33.665627 225.76562 34.728127Q224.90625 35.775 224.90625 37.775ZM241.10938 42.9L241.10938 41.36875Q239.90625 43.134377 237.82812 43.134377Q236.90625 43.134377 236.10938 42.790627Q235.3125 42.43125 234.92188 41.9Q234.54688 41.36875 234.39062 40.5875Q234.28125 40.071877 234.28125 38.946877L234.28125 32.525L236.03125 32.525L236.03125 38.275Q236.03125 39.65 236.14062 40.134377Q236.3125 40.821877 236.84375 41.228127Q237.39062 41.61875 238.17188 41.61875Q238.96875 41.61875 239.65625 41.2125Q240.35938 40.80625 240.64062 40.11875Q240.9375 39.415627 240.9375 38.0875L240.9375 32.525L242.6875 32.525L242.6875 42.9L241.10938 42.9ZM244.28125 42.9L244.28125 28.587502L246.03125 28.587502L246.03125 42.9L244.28125 42.9ZM255.09375 41.61875Q254.10938 42.446877 253.20312 42.790627Q252.29688 43.134377 251.26562 43.134377Q249.5625 43.134377 248.64062 42.30625Q247.71875 41.4625 247.71875 40.165627Q247.71875 39.4 248.0625 38.775Q248.42188 38.15 248.98438 37.775Q249.54688 37.384377 250.25 37.18125Q250.76562 37.05625 251.8125 36.915627Q253.9375 36.665627 254.9375 36.321877Q254.95312 35.9625 254.95312 35.853127Q254.95312 34.790627 254.45312 34.3375Q253.78125 33.74375 252.45312 33.74375Q251.20312 33.74375 250.60938 34.18125Q250.03125 34.61875 249.75 35.728127L248.03125 35.49375Q248.26562 34.384377 248.79688 33.7125Q249.32812 33.025 250.34375 32.665627Q251.35938 32.290627 252.70312 32.290627Q254.03125 32.290627 254.85938 32.603127Q255.6875 32.915627 256.07812 33.4Q256.46875 33.86875 256.625 34.5875Q256.71875 35.040627 256.71875 36.2125L256.71875 38.55625Q256.71875 41.009377 256.82812 41.665627Q256.9375 42.30625 257.28125 42.9L255.4375 42.9Q255.17188 42.353127 255.09375 41.61875ZM254.9375 37.696877Q253.98438 38.0875 252.0625 38.353127Q250.98438 38.509377 250.53125 38.7125Q250.09375 38.9 249.84375 39.275Q249.59375 39.65 249.59375 40.11875Q249.59375 40.821877 250.125 41.290627Q250.65625 41.759377 251.6875 41.759377Q252.70312 41.759377 253.48438 41.321877Q254.28125 40.86875 254.65625 40.103127Q254.9375 39.49375 254.9375 38.3375L254.9375 37.696877ZM263.15625 41.321877L263.40625 42.884377Q262.67188 43.040627 262.07812 43.040627Q261.125 43.040627 260.59375 42.74375Q260.07812 42.43125 259.85938 41.946877Q259.64062 41.446877 259.64062 39.86875L259.64062 33.9L258.35938 33.9L258.35938 32.525L259.64062 32.525L259.64062 29.962502L261.39062 28.900002L261.39062 32.525L263.15625 32.525L263.15625 33.9L261.39062 33.9L261.39062 39.9625Q261.39062 40.7125 261.48438 40.93125Q261.57812 41.134377 261.78125 41.275Q262.0 41.4 262.39062 41.4Q262.67188 41.4 263.15625 41.321877ZM265.32812 30.603127L265.32812 28.587502L267.09375 28.587502L267.09375 30.603127L265.32812 30.603127ZM265.32812 42.9L265.32812 32.525L267.09375 32.525L267.09375 42.9L265.32812 42.9ZM268.67188 37.7125Q268.67188 34.8375 270.26562 33.446877Q271.60938 32.290627 273.53125 32.290627Q275.67188 32.290627 277.01562 33.696877Q278.375 35.103127 278.375 37.571877Q278.375 39.571877 277.78125 40.728127Q277.1875 41.86875 276.03125 42.509377Q274.89062 43.134377 273.53125 43.134377Q271.34375 43.134377 270.0 41.74375Q268.67188 40.3375 268.67188 37.7125ZM270.46875 37.7125Q270.46875 39.7125 271.32812 40.696877Q272.20312 41.68125 273.53125 41.68125Q274.84375 41.68125 275.70312 40.696877Q276.57812 39.696877 276.57812 37.65Q276.57812 35.728127 275.70312 34.74375Q274.82812 33.74375 273.53125 33.74375Q272.20312 33.74375 271.32812 34.74375Q270.46875 35.728127 270.46875 37.7125ZM280.3125 42.9L280.3125 32.525L281.90625 32.525L281.90625 34.009377Q283.04688 32.290627 285.20312 32.290627Q286.14062 32.290627 286.92188 32.634377Q287.71875 32.9625 288.10938 33.509377Q288.5 34.05625 288.65625 34.80625Q288.75 35.30625 288.75 36.525L288.75 42.9L286.98438 42.9L286.98438 36.5875Q286.98438 35.509377 286.78125 34.978127Q286.57812 34.446877 286.04688 34.134377Q285.53125 33.821877 284.82812 33.821877Q283.70312 33.821877 282.89062 34.540627Q282.07812 35.24375 282.07812 37.228127L282.07812 42.9L280.3125 42.9ZM303.09375 41.61875Q302.10938 42.446877 301.20312 42.790627Q300.29688 43.134377 299.26562 43.134377Q297.5625 43.134377 296.64062 42.30625Q295.71875 41.4625 295.71875 40.165627Q295.71875 39.4 296.0625 38.775Q296.42188 38.15 296.98438 37.775Q297.54688 37.384377 298.25 37.18125Q298.76562 37.05625 299.8125 36.915627Q301.9375 36.665627 302.9375 36.321877Q302.95312 35.9625 302.95312 35.853127Q302.95312 34.790627 302.45312 34.3375Q301.78125 33.74375 300.45312 33.74375Q299.20312 33.74375 298.60938 34.18125Q298.03125 34.61875 297.75 35.728127L296.03125 35.49375Q296.26562 34.384377 296.79688 33.7125Q297.32812 33.025 298.34375 32.665627Q299.35938 32.290627 300.70312 32.290627Q302.03125 32.290627 302.85938 32.603127Q303.6875 32.915627 304.07812 33.4Q304.46875 33.86875 304.625 34.5875Q304.71875 35.040627 304.71875 36.2125L304.71875 38.55625Q304.71875 41.009377 304.82812 41.665627Q304.9375 42.30625 305.28125 42.9L303.4375 42.9Q303.17188 42.353127 303.09375 41.61875ZM302.9375 37.696877Q301.98438 38.0875 300.0625 38.353127Q298.98438 38.509377 298.53125 38.7125Q298.09375 38.9 297.84375 39.275Q297.59375 39.65 297.59375 40.11875Q297.59375 40.821877 298.125 41.290627Q298.65625 41.759377 299.6875 41.759377Q300.70312 41.759377 301.48438 41.321877Q302.28125 40.86875 302.65625 40.103127Q302.9375 39.49375 302.9375 38.3375L302.9375 37.696877ZM307.3125 42.9L307.3125 32.525L308.90625 32.525L308.90625 34.009377Q310.04688 32.290627 312.20312 32.290627Q313.14062 32.290627 313.92188 32.634377Q314.71875 32.9625 315.10938 33.509377Q315.5 34.05625 315.65625 34.80625Q315.75 35.30625 315.75 36.525L315.75 42.9L313.98438 42.9L313.98438 36.5875Q313.98438 35.509377 313.78125 34.978127Q313.57812 34.446877 313.04688 34.134377Q312.53125 33.821877 311.82812 33.821877Q310.70312 33.821877 309.89062 34.540627Q309.07812 35.24375 309.07812 37.228127L309.07812 42.9L307.3125 42.9ZM324.04688 42.9L324.04688 41.5875Q323.0625 43.134377 321.14062 43.134377Q319.90625 43.134377 318.85938 42.446877Q317.82812 41.759377 317.25 40.540627Q316.6875 39.321877 316.6875 37.728127Q316.6875 36.165627 317.20312 34.9Q317.71875 33.634377 318.75 32.9625Q319.79688 32.290627 321.0625 32.290627Q322.0 32.290627 322.73438 32.696877Q323.46875 33.0875 323.9375 33.7125L323.9375 28.587502L325.67188 28.587502L325.67188 42.9L324.04688 42.9ZM318.48438 37.728127Q318.48438 39.7125 319.32812 40.696877Q320.17188 41.68125 321.3125 41.68125Q322.46875 41.68125 323.26562 40.74375Q324.07812 39.80625 324.07812 37.86875Q324.07812 35.74375 323.25 34.74375Q322.4375 33.74375 321.23438 33.74375Q320.0625 33.74375 319.26562 34.7125Q318.48438 35.665627 318.48438 37.728127ZM332.96875 42.9L338.46875 28.587502L340.51562 28.587502L346.375 42.9L344.21875 42.9L342.54688 38.55625L336.5625 38.55625L334.98438 42.9L332.96875 42.9ZM337.10938 37.025L341.95312 37.025L340.46875 33.05625Q339.78125 31.243752 339.45312 30.087502Q339.17188 31.462502 338.67188 32.821877L337.10938 37.025ZM347.29688 42.9L347.29688 32.525L348.875 32.525L348.875 34.103127Q349.48438 32.99375 350.0 32.65Q350.51562 32.290627 351.125 32.290627Q352.01562 32.290627 352.9375 32.853127L352.32812 34.49375Q351.6875 34.103127 351.04688 34.103127Q350.46875 34.103127 350.0 34.4625Q349.54688 34.80625 349.34375 35.415627Q349.0625 36.353127 349.0625 37.4625L349.0625 42.9L347.29688 42.9ZM361.42188 39.55625L363.23438 39.790627Q362.8125 41.36875 361.64062 42.259377Q360.48438 43.134377 358.67188 43.134377Q356.40625 43.134377 355.0625 41.74375Q353.73438 40.3375 353.73438 37.80625Q353.73438 35.18125 355.07812 33.74375Q356.42188 32.290627 358.57812 32.290627Q360.65625 32.290627 361.96875 33.7125Q363.29688 35.11875 363.29688 37.696877Q363.29688 37.853127 363.28125 38.165627L355.54688 38.165627Q355.64062 39.86875 356.51562 40.775Q357.39062 41.68125 358.6875 41.68125Q359.65625 41.68125 360.32812 41.18125Q361.01562 40.665627 361.42188 39.55625ZM355.64062 36.7125L361.4375 36.7125Q361.32812 35.415627 360.78125 34.759377Q359.9375 33.74375 358.59375 33.74375Q357.39062 33.74375 356.5625 34.55625Q355.73438 35.353127 355.64062 36.7125ZM372.09375 41.61875Q371.10938 42.446877 370.20312 42.790627Q369.29688 43.134377 368.26562 43.134377Q366.5625 43.134377 365.64062 42.30625Q364.71875 41.4625 364.71875 40.165627Q364.71875 39.4 365.0625 38.775Q365.42188 38.15 365.98438 37.775Q366.54688 37.384377 367.25 37.18125Q367.76562 37.05625 368.8125 36.915627Q370.9375 36.665627 371.9375 36.321877Q371.95312 35.9625 371.95312 35.853127Q371.95312 34.790627 371.45312 34.3375Q370.78125 33.74375 369.45312 33.74375Q368.20312 33.74375 367.60938 34.18125Q367.03125 34.61875 366.75 35.728127L365.03125 35.49375Q365.26562 34.384377 365.79688 33.7125Q366.32812 33.025 367.34375 32.665627Q368.35938 32.290627 369.70312 32.290627Q371.03125 32.290627 371.85938 32.603127Q372.6875 32.915627 373.07812 33.4Q373.46875 33.86875 373.625 34.5875Q373.71875 35.040627 373.71875 36.2125L373.71875 38.55625Q373.71875 41.009377 373.82812 41.665627Q373.9375 42.30625 374.28125 42.9L372.4375 42.9Q372.17188 42.353127 372.09375 41.61875ZM371.9375 37.696877Q370.98438 38.0875 369.0625 38.353127Q367.98438 38.509377 367.53125 38.7125Q367.09375 38.9 366.84375 39.275Q366.59375 39.65 366.59375 40.11875Q366.59375 40.821877 367.125 41.290627Q367.65625 41.759377 368.6875 41.759377Q369.70312 41.759377 370.48438 41.321877Q371.28125 40.86875 371.65625 40.103127Q371.9375 39.49375 371.9375 38.3375L371.9375 37.696877Z" fill-rule="nonzero"/></svg>