<?xml version="1.0" encoding="UTF-8"?>
<svg id="Ebene_1" data-name="Ebene 1" xmlns="http://www.w3.org/2000/svg" viewBox="0 0 595.28 841.89">
  <defs>
    <style>
      .cls-1 {
        stroke-dasharray: 0 0 0 0 0 0 2.84 2.84 2.84 2.84 2.84 2.84;
      }

      .cls-1, .cls-2, .cls-3, .cls-4 {
        fill: none;
        stroke: #1d1d1b;
        stroke-miterlimit: 10;
      }

      .cls-1, .cls-3, .cls-4 {
        stroke-width: 1px;
      }

      .cls-5 {
        letter-spacing: 0em;
      }

      .cls-6 {
        letter-spacing: 0em;
      }

      .cls-7 {
        letter-spacing: 0em;
      }

      .cls-8 {
        letter-spacing: 0em;
      }

      .cls-9 {
        letter-spacing: 0em;
      }

      .cls-10 {
        letter-spacing: .01em;
      }

      .cls-11 {
        letter-spacing: -.01em;
      }

      .cls-12 {
        letter-spacing: .02em;
      }

      .cls-3 {
        stroke-dasharray: 0 0 0 0 2.84 2.84 2.84 2.84;
      }

      .cls-13 {
        letter-spacing: 0em;
      }

      .cls-14 {
        letter-spacing: 0em;
      }

      .cls-15 {
        fill: #1d1d1b;
        font-family: MyriadPro-Regular, 'Myriad Pro';
        font-size: 12px;
      }
    </style>
  </defs>
  <text class="cls-15" transform="translate(57.65 179.51)"><tspan class="cls-11" x="0" y="0">A</tspan><tspan x="7.2" y="0">ge</tspan></text>
  <path class="cls-2" d="M81.37,330.67h90.75s-42.64-19.77-45.37-112.34c0,0,0,84.1-45.37,112.34Z"/>
  <path class="cls-2" d="M126.74,330.67v0Z"/>
  <polygon class="cls-2" points="246.69 218.33 292.35 330.67 199.94 330.67 246.69 218.33"/>
  <path class="cls-2" d="M246.69,218.33l-.54,112.34,.54-112.34Z"/>
  <polygon class="cls-2" points="366.45 218.33 332.93 235.21 320.34 264.62 320.34 329.15 366.45 329.15 412.55 329.15 412.55 264.62 399.97 235.21 366.45 218.33"/>
  <path class="cls-2" d="M366.45,329.15v0Z"/>
  <path class="cls-2" d="M486.39,217.63s-42.96,32.26-42.67,48.22,15.67,30.96,15.67,30.96c21.02,19.3,1.61,33.04,1.61,33.04h25.39s24.85,.28,24.85,.28c0,0-18.87-13.32,2.15-32.62,0,0,15.38-15,15.67-30.96s-42.67-48.92-42.67-48.92h0Z"/>
  <g>
    <line class="cls-4" x1="72.96" y1="264.23" x2="74.37" y2="264.23"/>
    <line class="cls-3" x1="77.22" y1="264.23" x2="87.17" y2="264.23"/>
    <line class="cls-1" x1="88.6" y1="264.23" x2="530.87" y2="264.23"/>
    <line class="cls-4" x1="532.29" y1="264.23" x2="533.71" y2="264.23"/>
  </g>
  <g>
    <line class="cls-4" x1="72.96" y1="312.32" x2="74.37" y2="312.32"/>
    <line class="cls-3" x1="77.22" y1="312.32" x2="87.17" y2="312.32"/>
    <line class="cls-1" x1="88.6" y1="312.32" x2="530.87" y2="312.32"/>
    <line class="cls-4" x1="532.29" y1="312.32" x2="533.71" y2="312.32"/>
  </g>
  <text class="cls-15" transform="translate(59.39 268.48)"><tspan x="0" y="0">65</tspan></text>
  <text class="cls-15" transform="translate(57.58 222.24)"><tspan x="0" y="0">100</tspan></text>
  <text class="cls-15" transform="translate(59.39 316.79)"><tspan x="0" y="0">15</tspan></text>
  <text class="cls-15" transform="translate(63.73 330.65)"><tspan x="0" y="0">0</tspan></text>
  <text class="cls-15" transform="translate(78.4 347.73)"><tspan class="cls-13" x="0" y="0">S</tspan><tspan class="cls-14" x="5.88" y="0">tage 1 - </tspan><tspan class="cls-13" x="45.83" y="0">e</tspan><tspan x="51.8" y="0">xpanding</tspan></text>
  <text class="cls-15" transform="translate(197.72 350.44)"><tspan class="cls-13" x="0" y="0">S</tspan><tspan class="cls-14" x="5.88" y="0">tage 2 - </tspan><tspan class="cls-13" x="45.83" y="0">e</tspan><tspan x="51.8" y="0">xpanding</tspan></text>
  <text class="cls-15" transform="translate(318.46 350.44)"><tspan class="cls-8" x="0" y="0">S</tspan><tspan x="5.88" y="0">tage 3 - st</tspan><tspan class="cls-5" x="54.55" y="0">a</tspan><tspan x="60.29" y="0">tiona</tspan><tspan class="cls-12" x="86.1" y="0">r</tspan><tspan class="cls-6" x="90.32" y="0">y</tspan></text>
  <text class="cls-15" transform="translate(437.54 350.44)"><tspan class="cls-8" x="0" y="0">S</tspan><tspan x="5.88" y="0">tage 4 - </tspan><tspan class="cls-9" x="45.83" y="0">c</tspan><tspan x="51.13" y="0">o</tspan><tspan class="cls-5" x="57.72" y="0">n</tspan><tspan x="64.33" y="0">t</tspan><tspan class="cls-7" x="68.3" y="0">r</tspan><tspan x="72.17" y="0">a</tspan><tspan class="cls-10" x="77.95" y="0">c</tspan><tspan x="83.48" y="0">ting</tspan></text>
</svg>